<svg width="25" height="24" viewBox="0 0 25 24" fill="none" xmlns="http://www.w3.org/2000/svg">
<path d="M4.10213 1.94158C4.19435 1.93486 4.29854 1.92163 4.38744 1.94148C4.45958 2.06548 4.43287 2.86619 4.39393 3.00527C4.08336 4.11401 4.33727 4.88093 5.52682 5.25879C6.46192 5.55581 7.81888 4.72141 7.65689 3.63462C7.62774 3.43914 7.49125 3.19592 7.4743 2.98474C7.43854 2.63259 7.45006 2.27554 7.45257 1.9209C7.7276 1.97268 8.33878 1.95735 8.63805 1.95732L10.6491 1.95601L12.7104 1.95676C13.0646 1.95686 13.6517 1.97227 13.9836 1.92249C13.978 2.24031 13.9862 2.6001 13.9622 2.91318C13.9295 3.22048 13.8627 3.51086 13.8519 3.8209C13.8212 4.70479 14.6943 5.31213 15.5123 5.31509C15.952 5.30854 16.4875 5.10859 16.7771 4.79702C17.3564 4.17371 17.3201 3.73564 17.077 2.97432C17.0465 2.87878 17.0538 2.10488 17.0513 1.92974C18.5634 2.11023 20.0511 1.54237 21.1975 2.9946C21.9302 3.92275 21.7999 4.81563 21.7979 5.91919L21.7961 8.5416L21.7975 10.7002C21.7983 11.0106 21.823 11.5469 21.7895 11.8269C21.5094 11.6848 20.8599 11.5171 20.6789 11.3882C20.6092 11.2814 20.6188 10.9898 20.6169 10.8603C20.5979 9.62192 20.6535 8.35911 20.6149 7.12317C20.1955 7.13159 19.6882 7.10757 19.2536 7.10742L15.3025 7.10713L3.14793 7.10703C2.51275 7.10725 1.86458 7.11785 1.23092 7.10662C1.28372 7.96914 1.2444 9.27061 1.24443 10.1551L1.24473 15.8959L1.2428 17.7473C1.24194 18.5191 1.14755 19.0388 1.72148 19.6457C2.36825 20.3295 3.22708 20.238 4.08458 20.2357L5.53167 20.2342L9.60438 20.2354C10.3625 20.2354 11.1374 20.223 11.8932 20.2404C12.0778 20.5036 12.2238 20.8125 12.399 21.0903C12.6435 21.4782 12.8898 21.7498 13.1782 22.0928C12.4204 22.0241 11.2248 22.0629 10.4291 22.0629L5.52164 22.0631C4.62208 22.0637 3.43399 22.1414 2.57772 21.9452C1.00445 21.5848 0.0150243 20.1282 0.0196459 18.5449C0.0228124 17.4596 0.0149608 16.3419 0.0146068 15.2427L0.0126585 9.08332C0.0167552 7.54536 -0.0333132 5.9594 0.0413719 4.42454C0.0682347 3.87246 0.397253 3.23196 0.771472 2.8208C1.71382 1.7855 2.85326 1.98872 4.10213 1.94158Z" fill="white"/>
<path d="M18.2202 11.6306C18.2668 11.6282 18.3134 11.627 18.3601 11.627C20.1479 11.6269 21.8569 12.3956 23.0828 13.6842C25.4435 16.1657 25.1646 20.2426 22.4629 22.3668C21.3663 23.2291 20.1268 23.7324 18.7225 23.728C18.4339 23.7323 17.7826 23.7431 17.5196 23.7031C16.3133 23.5138 15.3302 23.1133 14.3581 22.3306C13.2305 21.4227 12.3479 19.9503 12.1794 18.4961C12.1357 18.119 12.1404 17.2057 12.1998 16.853C12.5996 14.4814 14.3665 12.5092 16.6827 11.8604C17.1438 11.7311 17.7464 11.6718 18.2202 11.6306ZM17.4595 18.3577C17.0663 18.0364 16.0163 16.7169 15.5903 16.7558C15.3325 16.7793 15.0416 17.0692 14.8863 17.2654C14.7878 17.3899 14.6978 17.5515 14.7192 17.7163C14.7577 18.0121 15.4185 18.5641 15.6485 18.765C16.1696 19.3076 16.8673 19.9759 17.4155 20.505C17.582 20.2488 18.352 19.5559 18.603 19.3109L21.3133 16.6678C21.5441 16.446 22.174 15.879 22.3281 15.639C22.3369 15.4541 22.3382 15.3251 22.3296 15.1404C22.1572 14.8534 21.8835 14.5444 21.5225 14.5349C21.4038 14.5656 21.2891 14.6016 21.1949 14.6821C20.8161 15.0059 20.4408 15.4003 20.0876 15.7534C19.5096 16.3312 18.9284 16.9058 18.3441 17.4772C18.0759 17.7427 17.7285 18.1133 17.4595 18.3577Z" fill="white"/>
<path d="M15.384 0.0041881C16.0511 -0.0357411 16.5663 0.296747 16.5731 0.996881C16.5818 1.90159 16.5969 2.81575 16.5676 3.7199C16.548 4.32336 16.2655 4.52466 15.7337 4.7061C15.2157 4.80364 14.6118 4.45578 14.5469 3.93288C14.4836 3.42302 14.4928 2.79265 14.5136 2.273C14.5502 1.35576 14.2125 0.260697 15.384 0.0041881Z" fill="white"/>
<path d="M5.80373 0.00644234C6.03083 -0.0174956 6.25995 0.0255952 6.46286 0.130395C6.66225 0.230898 6.85353 0.402609 6.92187 0.621552C7.03744 0.991826 7.0266 3.23011 6.98254 3.7105C6.9684 3.86439 6.94589 4.04395 6.87167 4.18072C6.70856 4.48131 6.41759 4.62913 6.10241 4.71905C5.29667 4.83392 4.90839 4.17296 4.93598 3.46702C4.96923 2.61624 4.89316 1.73927 4.95441 0.888684C4.99242 0.361059 5.31383 0.104709 5.80373 0.00644234Z" fill="white"/>
<path d="M3.52333 12.4053C3.76739 12.4002 4.04894 12.3874 4.28885 12.4C4.95294 12.4349 6.07279 12.1668 6.0327 13.1904C6.00983 13.7742 6.10196 14.4153 5.97347 14.9836C5.93544 15.1518 5.61578 15.2796 5.47159 15.3304C4.98404 15.3255 3.59921 15.396 3.24335 15.2266C3.12438 15.17 3.05404 15.0272 3.01522 14.9077C2.91947 14.6129 2.89576 13.0338 3.02418 12.7881C3.13724 12.5717 3.29867 12.4771 3.52333 12.4053Z" fill="white"/>
<path d="M3.51925 16.0198C3.91026 15.9928 5.34163 15.9693 5.63985 16.09C5.79522 16.1529 5.9232 16.2751 5.9847 16.4318C6.07318 16.6572 6.07789 18.39 5.97691 18.6022C5.89793 18.7682 5.688 18.8805 5.52308 18.9385C5.04954 18.9648 3.6606 19.019 3.27237 18.8529C3.15623 18.8033 3.09351 18.6915 3.05013 18.5775C2.93883 18.2853 2.90714 16.6718 3.02989 16.4122C3.13553 16.1888 3.29749 16.099 3.51925 16.0198Z" fill="white"/>
<path d="M7.35449 12.4059C7.78056 12.3842 9.21179 12.3457 9.54077 12.4939C9.67136 12.5526 9.74506 12.6704 9.79453 12.801C9.91835 13.1278 9.92473 14.6914 9.78454 14.9926C9.69648 15.1819 9.51738 15.2614 9.33203 15.3257C8.91523 15.3339 7.4645 15.3758 7.15927 15.2397C7.03474 15.1841 6.93127 15.0937 6.8853 14.9621C6.82643 14.7935 6.81686 12.9008 6.89575 12.738C6.97685 12.5706 7.18967 12.467 7.35449 12.4059Z" fill="white"/>
<path d="M3.50286 8.7688C3.80169 8.74412 4.20125 8.76507 4.46929 8.76006C5.67964 8.73348 6.10916 8.69173 6.01976 10.082C5.98487 10.6247 6.21924 11.464 5.48958 11.6155C5.00377 11.6476 3.65972 11.6587 3.23157 11.5556C3.143 11.4498 3.04339 11.3308 3.00792 11.1956C2.9242 10.8766 2.91304 9.31119 3.06539 9.05523C3.16312 8.89102 3.32461 8.81446 3.50286 8.7688Z" fill="white"/>
<path d="M11.235 8.77075C11.6152 8.73887 13.1994 8.69905 13.4806 8.87812C13.6112 8.96125 13.6766 9.13931 13.7082 9.28323C13.7696 9.56245 13.7647 10.7193 13.7237 11.0181C13.7054 11.1521 13.6675 11.3073 13.5907 11.4207C13.4932 11.5646 13.3512 11.5865 13.193 11.6185C12.57 11.649 11.6077 11.673 11.0009 11.5657C10.5443 11.4849 10.7261 9.70747 10.7152 9.351C10.7055 9.03162 10.9325 8.83298 11.235 8.77075Z" fill="white"/>
<path d="M7.41455 8.76919C7.73796 8.74924 8.09207 8.75608 8.41865 8.75872C8.95701 8.76304 9.85398 8.63145 9.86443 9.41909C9.87197 9.98767 9.91479 10.5846 9.83989 11.1442C9.82009 11.2921 9.69358 11.4465 9.60269 11.5596L9.33643 11.6195C8.92673 11.6324 7.40544 11.7132 7.1178 11.5303C7.00877 11.4609 6.90159 11.3473 6.87593 11.2171C6.81626 10.9142 6.79619 9.25464 6.94355 9.0374C7.04846 8.88274 7.23726 8.80205 7.41455 8.76919Z" fill="white"/>
</svg>
