<svg width="1344" height="1104" viewBox="0 0 1344 1104" fill="none" xmlns="http://www.w3.org/2000/svg">
<path d="M885.622 259.178C905.697 272.806 926.408 289.112 946.431 303.334L946.818 303.34C956.767 311.838 974.676 323.951 985.681 331.332C985.897 335.366 981.442 345.713 980.352 350.978C975.05 376.604 975.739 412.645 986.495 436.714C991.364 450.393 1000.45 466.614 1006.35 480.918C1025.69 527.807 1045.48 600.189 1037.13 650.489C1036.17 659.177 1035.46 664.52 1033.5 673.118C1037.64 669.902 1060.4 640.173 1065.25 634.131C1075.63 633.768 1087.71 634.482 1098.25 634.491C1104.18 634.496 1119.25 634.371 1124.51 635.207C1127.79 634.674 1130.27 634.748 1133.57 634.744C1137 634.794 1139.87 634.639 1143.29 634.365C1162.33 632.834 1181.54 633.403 1200.63 631.868C1203.76 631.616 1207.26 631.45 1210.37 631.524C1215.14 635.399 1224.08 646.624 1228.43 651.802L1256.97 685.648L1286.25 719.654C1289.77 723.75 1299.09 734.192 1301.35 738.19C1304.37 742.305 1303.33 759.62 1303.34 765.698L1303.38 807.607L1303.5 852.187C1303.52 859.019 1303.85 868.852 1303.45 875.402C1301.61 879.353 1293.23 887.722 1289.88 891.463L1256.25 928.751C1248.75 936.962 1241.09 944.714 1234.56 953.739C1231.1 956.095 1226.75 961.372 1223.89 964.667C1221.64 966.866 1219.27 969.281 1216.97 971.401C1201.74 970.227 1172.57 970.791 1156.99 971.487C1150.35 972.878 1134.27 971.579 1126.45 971.428C1111.02 971.224 1095.59 971.231 1080.15 971.454C1077.07 971.461 1067.52 969.767 1063.95 969.236C1061.04 965.12 1053.29 953.555 1049.19 951.986C1047.37 944.248 1000 891.529 992.959 880.312C986.98 870.801 987.702 874.844 986.856 862.17C980.976 862.439 939.691 864.159 937.315 865.209C926.218 884.447 888.707 918.479 869.617 931.252C867.589 935.118 868.888 944.779 868.822 949.768C868.783 954.389 868.133 985.021 869.387 987.049C863.579 992.057 851.425 1009.74 846.51 1016.44L814.918 1058.76C811.991 1062.74 808.329 1068.63 805.895 1071.86C802.561 1074.31 793.439 1087.43 790.637 1091.33C801.327 1092.38 824.998 1094.27 834.382 1097.48C807.424 1102.01 780.353 1103.17 753.119 1102.34C742.074 1102 730.583 1102.54 719.545 1101.84C703.447 1100.49 678.129 1104.35 662.465 1102.61C653.343 1101.6 601.223 1104.25 596.02 1102.17C593.19 1098.96 590.835 1096.35 587.783 1093.36C585.467 1090.81 584.264 1089.77 581.659 1087.59C579.655 1082.92 570.307 1074.25 566.581 1069.86C555.303 1056.58 510.423 1007.64 506.683 994.322L507.12 994.276C511.535 993.055 546.739 996.284 554.431 996.717C569.716 997.577 584.458 998.168 600.043 998.339C600.244 989.97 600.374 981.503 600.253 973.134C599.604 928.2 601.114 882.983 600.037 838.094C589.541 838.324 514.822 835.344 510.018 831.872C508.443 830.737 508.29 829.969 507.893 828.124L509.274 826.07C509.209 823.504 510.804 820.556 511.864 818.069C477.077 812.05 438.756 807.895 403.587 803.038L399.91 802.493C398.619 796.973 398.436 756.377 398.275 748.396C394.576 744.891 378.058 722.549 373.702 716.943C354.787 692.953 336.073 668.806 317.561 644.501C311.977 637.627 312.813 641.712 305.569 640.04C297.738 591.324 312.311 531.933 330.867 486.751C341.709 460.356 363.829 430.293 363.893 401.143C363.925 386.576 362.297 345.919 356.237 333.733C363.103 327.675 374.469 319.812 382.134 314.262L422.814 284.801L422.811 284.357C428.622 281.403 450.528 264.723 456.73 259.999C471.565 279.123 487.795 302.197 515.049 301.233C526.142 299.333 547.057 289.517 558.554 285.168C593.866 271.611 631.356 264.616 669.178 264.528C717.911 264.5 767.793 275.613 813.376 292.539C821.343 295.498 829.402 298.681 838.044 297.749C839.541 297.515 840.341 297.549 841.837 297.522C859.884 293.805 877.117 274.911 885.622 259.178Z" fill="white"/>
<path d="M1133.57 634.745C1137 634.795 1139.87 634.64 1143.29 634.366C1162.33 632.835 1181.54 633.404 1200.63 631.868C1203.76 631.616 1207.26 631.451 1210.37 631.524C1215.14 635.4 1224.08 646.625 1228.43 651.803L1256.97 685.649L1286.25 719.655C1289.77 723.75 1299.09 734.193 1301.35 738.19C1304.37 742.306 1303.33 759.621 1303.34 765.698L1303.38 807.607L1303.5 852.187C1303.52 859.02 1303.85 868.852 1303.45 875.403C1301.61 879.354 1293.23 887.723 1289.88 891.464L1256.25 928.752C1248.75 936.963 1241.09 944.714 1234.56 953.739C1231.1 956.096 1226.75 961.373 1223.89 964.668C1221.64 966.867 1219.27 969.282 1216.97 971.402C1201.74 970.227 1172.57 970.792 1156.99 971.487C1150.35 972.879 1134.27 971.579 1126.45 971.428C1111.02 971.225 1095.59 971.232 1080.15 971.455C1077.07 971.461 1067.52 969.768 1063.95 969.236C1061.04 965.121 1053.29 953.556 1049.19 951.987C1047.37 944.248 1000 891.529 992.959 880.312C986.98 870.802 987.702 874.845 986.856 862.171C980.976 862.44 939.691 864.159 937.315 865.209C926.218 884.447 888.707 918.48 869.616 931.253C867.589 935.119 868.888 944.78 868.822 949.768C868.783 954.389 868.133 985.022 869.387 987.05C863.579 992.058 851.425 1009.74 846.51 1016.44L814.918 1058.76C811.991 1062.74 808.329 1068.63 805.895 1071.86C802.561 1074.31 793.439 1087.43 790.637 1091.33C801.327 1092.38 824.998 1094.27 834.382 1097.48C807.424 1102.01 780.353 1103.17 753.119 1102.34C742.074 1102 730.583 1102.54 719.545 1101.84C703.447 1100.49 678.129 1104.35 662.465 1102.61C653.343 1101.6 601.223 1104.25 596.02 1102.17C593.19 1098.96 590.835 1096.35 587.783 1093.36C585.467 1090.81 584.264 1089.77 581.658 1087.59C579.655 1082.92 570.307 1074.25 566.581 1069.86C555.303 1056.58 510.423 1007.64 506.683 994.322L507.12 994.276C511.535 993.055 546.739 996.285 554.431 996.718C569.715 997.578 584.457 998.169 600.043 998.339C600.244 989.971 600.373 981.504 600.253 973.135C599.604 928.2 601.114 882.984 600.037 838.095C589.541 838.325 514.821 835.345 510.018 831.873C508.443 830.737 508.29 829.969 507.893 828.125L509.273 826.071C509.209 823.504 510.804 820.557 511.864 818.07L514.913 819.277C517.337 816.717 524.813 806.235 527.309 802.934L553.933 767.648C556.533 764.169 567.988 750.497 568.322 747.458L569.013 747.576C571.123 746.382 573.734 742.673 575.383 740.625C582.52 732.723 593.17 717.672 599.808 708.779C607.615 708.693 626.281 709.875 632.207 709.442C630.109 708.923 630.302 709.33 629.194 707.991L629.616 706.718C632.206 704.952 632.625 704.939 635.779 704.834C634.432 704.519 633.432 704.355 632.078 704.138C632.314 703.167 632.148 703.285 632.69 702.655C646.954 686.003 659.42 670.67 670.641 651.818C678.615 651.799 727.689 650.961 731.784 652.557C734.488 651.585 739.279 651.792 742.37 651.757C751.846 666.03 765.338 680.194 775.943 693.84C779.389 698.277 785.525 704.972 788.202 709.56C797.744 721.007 807.555 733.281 817.3 744.413C819.23 746.605 821.671 749.204 823.344 751.541C847.415 750.346 876.067 748.443 899.955 748.141C899.528 760.559 897.218 766.23 912.607 763.854C919.183 761.872 977.182 761.432 988.404 761.078C988.345 750.51 988.444 739.621 987.768 729.106C998.412 715.953 1009.12 702.858 1019.9 689.817C1023.3 685.655 1030.18 676.302 1033.5 673.119C1037.64 669.903 1060.4 640.174 1065.25 634.132C1075.63 633.769 1087.71 634.483 1098.25 634.492C1104.18 634.497 1119.25 634.372 1124.51 635.207C1127.79 634.675 1130.27 634.748 1133.57 634.745Z" fill="#4C5158"/>
<path d="M1133.57 634.745C1137 634.795 1139.87 634.64 1143.29 634.366C1162.33 632.835 1181.54 633.404 1200.63 631.868C1203.76 631.616 1207.26 631.451 1210.37 631.524C1215.14 635.4 1224.08 646.625 1228.43 651.803L1256.97 685.649L1286.25 719.655C1289.77 723.75 1299.09 734.193 1301.35 738.19C1304.37 742.306 1303.33 759.621 1303.34 765.698L1303.38 807.607L1303.5 852.187C1303.52 859.02 1303.85 868.852 1303.45 875.403C1301.61 879.354 1293.23 887.723 1289.88 891.464L1256.25 928.752C1248.75 936.963 1241.09 944.714 1234.56 953.739C1231.1 956.096 1226.75 961.373 1223.89 964.668C1221.64 966.867 1219.27 969.282 1216.97 971.402C1201.74 970.227 1172.57 970.792 1156.99 971.487C1150.35 972.879 1134.27 971.579 1126.45 971.428C1111.02 971.225 1095.59 971.232 1080.15 971.455C1077.07 971.461 1067.52 969.768 1063.95 969.236C1061.04 965.121 1053.29 953.556 1049.19 951.987C1047.37 944.249 1000 891.53 992.959 880.312C986.98 870.802 987.702 874.845 986.856 862.171C994.442 861.35 1003.24 861.048 1010.89 860.93C1030.96 860.608 1051.16 857.996 1071.14 857.307C1077.39 864.159 1090.67 884.434 1096.17 892.586L1139.91 957.802C1145.37 952.807 1153.34 942.936 1158.39 936.923C1169.66 924.748 1180.55 911.798 1191.59 899.366C1198.38 891.713 1204.8 883.502 1212.2 876.446L1149.6 817.676C1141.6 810.075 1125.26 793.489 1117.07 787.122C1113.09 785.166 1105.79 775.183 1100.57 770.779C1093.58 774.356 985.267 774.973 965.495 777.5C948.813 769.866 930.904 765.246 912.607 763.854C919.183 761.872 977.182 761.432 988.404 761.078C988.345 750.51 988.444 739.621 987.768 729.106C998.412 715.953 1009.12 702.858 1019.9 689.817C1023.3 685.655 1030.18 676.302 1033.5 673.119C1037.64 669.903 1060.4 640.174 1065.25 634.132C1075.63 633.769 1087.71 634.483 1098.25 634.492C1104.18 634.497 1119.25 634.372 1124.51 635.207C1127.79 634.675 1130.27 634.748 1133.57 634.745Z" fill="#81858D"/>
<path d="M1301.35 738.19C1304.37 742.306 1303.33 759.621 1303.34 765.698L1303.39 807.607L1303.5 852.187C1303.52 859.02 1303.85 868.852 1303.45 875.403C1292.92 876.446 1275.47 879.8 1265.05 879.164C1258.33 878.757 1222.93 882.308 1219.52 881.297C1218.93 879.708 1218.76 879.092 1218.38 877.497L1214.96 881.33C1214.4 879 1214.38 849.26 1214.34 845.295C1214.06 822.277 1213.96 799.252 1214.05 776.233C1214.06 767.405 1213.6 755.085 1213.99 746.69C1215.88 744.354 1218.49 742.962 1221.07 741.308C1228.99 740.717 1245.54 740.79 1253.68 741.118C1259.55 741.046 1266.5 740.776 1272.27 740.901C1274.67 741.065 1277.06 740.895 1278.93 742.207C1281.83 742.404 1295.3 741.334 1297.71 740.146C1298.61 739.529 1300.32 738.716 1301.35 738.19Z" fill="white"/>
<path d="M1221.07 741.307C1228.99 740.717 1245.54 740.789 1253.68 741.117C1245.01 742.351 1231.81 740.408 1224.14 742.509L1223.51 743.526C1223.93 745.2 1223.45 744.57 1224.68 745.613C1224.32 745.974 1223.96 746.335 1223.6 746.696C1222.74 777.027 1221.38 834.012 1221.35 862.006C1221.35 865.793 1221.37 869.574 1221.43 873.361C1220.8 874.162 1218.72 876.761 1218.38 877.496L1214.96 881.329C1214.4 878.999 1214.38 849.259 1214.34 845.295C1214.06 822.276 1213.96 799.251 1214.05 776.232C1214.06 767.404 1213.6 755.084 1213.99 746.69C1215.88 744.353 1218.49 742.961 1221.07 741.307Z" fill="#A5AAAF"/>
<path d="M1253.68 741.117C1259.55 741.045 1266.5 740.776 1272.27 740.901C1274.67 741.065 1277.06 740.894 1278.93 742.207C1264.39 743.185 1238.36 745.771 1224.68 745.613C1223.45 744.57 1223.93 745.2 1223.51 743.526L1224.14 742.509C1231.81 740.408 1245.01 742.351 1253.68 741.117Z" fill="#F2F3F5"/>
<path d="M1133.57 634.745C1137 634.795 1139.87 634.64 1143.29 634.366C1162.33 632.835 1181.54 633.404 1200.63 631.868C1203.76 631.616 1207.26 631.451 1210.37 631.524C1215.14 635.4 1224.08 646.625 1228.43 651.803L1256.97 685.649L1286.25 719.655C1289.77 723.75 1299.09 734.193 1301.35 738.19C1300.32 738.715 1298.61 739.529 1297.71 740.146C1295.3 741.334 1281.83 742.404 1278.93 742.207C1277.06 740.895 1274.67 741.065 1272.27 740.901C1266.5 740.776 1259.55 741.046 1253.68 741.118C1245.54 740.79 1228.99 740.717 1221.06 741.308C1216.18 736.064 1208.83 726.363 1204.1 720.574L1169.02 677.851L1146.8 651.332C1143.12 646.978 1136.26 639.341 1133.57 634.745Z" fill="white"/>
<path d="M1272.27 740.901C1275.35 740.533 1295.43 739.568 1297.71 740.146C1295.3 741.334 1281.83 742.404 1278.93 742.207C1277.06 740.894 1274.67 741.065 1272.27 740.901Z" fill="#A5AAAF"/>
<path d="M1218.38 877.496C1218.76 879.091 1218.92 879.708 1219.52 881.296C1222.93 882.307 1258.33 878.756 1265.05 879.163C1275.47 879.8 1292.92 876.446 1303.45 875.402C1301.61 879.354 1293.23 887.722 1289.88 891.463L1256.25 928.751C1248.75 936.963 1241.09 944.714 1234.56 953.739C1231.1 956.095 1226.75 961.373 1223.89 964.668C1221.64 966.866 1219.27 969.282 1216.97 971.402C1201.74 970.227 1172.57 970.791 1156.99 971.487L1135.46 971.375C1144.64 962.049 1156.63 947.628 1165.5 937.579C1182.09 918.919 1198.57 900.173 1214.95 881.329L1218.38 877.496Z" fill="white"/>
<path d="M1124.51 635.207C1127.79 634.675 1130.27 634.748 1133.57 634.745C1136.26 639.341 1143.12 646.978 1146.8 651.332L1169.02 677.851L1204.1 720.573C1208.83 726.362 1216.18 736.064 1221.06 741.308C1218.49 742.962 1215.88 744.353 1213.99 746.69C1211.6 744.465 1198.5 727.334 1195.9 724.019L1151.02 667.047C1144.47 658.744 1131.52 641.517 1124.51 635.207Z" fill="#F2F3F5"/>
<path d="M1100.57 770.779C1093.86 765.626 1086.43 761.413 1077.79 761.8C1073.6 761.984 1067.52 761.189 1070.58 755.289C1084.64 744.295 1121.66 763.362 1117.07 787.122C1113.08 785.166 1105.79 775.183 1100.57 770.779Z" fill="#F2F3F5"/>
<path d="M670.642 651.818C678.615 651.798 727.689 650.961 731.784 652.557C734.488 651.584 739.279 651.791 742.37 651.757C751.846 666.03 765.338 680.194 775.943 693.84C779.389 698.277 785.525 704.972 788.202 709.56C760.449 709.763 727.283 711.916 699.274 713.078C690.25 724.105 680.827 737.704 672.374 749.394L630.534 807.121C624.701 815.116 613.756 831.052 607.828 837.819L600.037 838.095C589.542 838.325 514.822 835.345 510.018 831.873C508.443 830.737 508.29 829.969 507.894 828.125L509.274 826.07C509.209 823.504 510.804 820.557 511.864 818.069L514.913 819.277C517.337 816.717 524.814 806.235 527.309 802.934L553.933 767.648C556.533 764.169 567.988 750.497 568.322 747.458L569.013 747.576C571.123 746.381 573.734 742.673 575.383 740.625C582.52 732.723 593.171 717.672 599.809 708.779C607.615 708.693 626.281 709.875 632.207 709.441C630.11 708.923 630.303 709.33 629.194 707.991L629.616 706.718C632.206 704.952 632.625 704.939 635.779 704.834C634.432 704.519 633.432 704.355 632.078 704.138C632.315 703.167 632.148 703.285 632.691 702.655C646.954 686.003 659.42 670.67 670.642 651.818Z" fill="white"/>
<path d="M670.642 651.818C678.615 651.798 727.69 650.961 731.785 652.557C739.883 662.013 747.988 672.193 755.882 681.861C761.369 688.576 768.463 696.787 773.483 703.698C763.606 702.871 744.103 703.77 733.629 703.941C714.578 704.21 695.52 704.387 676.463 704.453C663.226 704.63 648.936 705.274 635.779 704.834C634.433 704.519 633.433 704.355 632.078 704.138C632.315 703.167 632.148 703.285 632.691 702.655C646.955 686.003 659.42 670.67 670.642 651.818Z" fill="#81858D"/>
<path d="M731.784 652.556C734.488 651.584 739.279 651.791 742.37 651.757C751.846 666.029 765.338 680.194 775.943 693.839C779.389 698.276 785.525 704.971 788.202 709.559C760.449 709.763 727.283 711.916 699.274 713.077C690.25 724.104 680.827 737.704 672.374 749.394L630.534 807.121C624.701 815.115 613.756 831.052 607.828 837.819L600.037 838.095C589.542 838.324 514.822 835.344 510.018 831.872C508.443 830.737 508.29 829.969 507.894 828.124L509.274 826.07C511.903 824.784 513.448 824.501 516.238 823.832C521.745 824.856 538.88 825.604 545.182 826.096L601.734 830.875C605.415 825.558 609.53 819.953 613.476 814.807C639.307 781.109 663.666 745.679 689.758 712.231C671.278 711.765 650.18 709.231 632.207 709.441C630.11 708.923 630.303 709.33 629.194 707.991L629.616 706.717C632.206 704.952 632.625 704.939 635.779 704.834C648.935 705.273 663.226 704.63 676.463 704.453C695.52 704.387 714.578 704.21 733.628 703.941C744.102 703.77 763.606 702.871 773.483 703.698C768.462 696.787 761.368 688.575 755.882 681.861C747.987 672.193 739.883 662.012 731.784 652.556Z" fill="#F2F3F5"/>
<path d="M511.864 818.069L514.913 819.277C517.206 822.697 516.002 821.765 519.359 823.333C518.754 823.425 516.698 823.688 516.238 823.832C513.448 824.502 511.902 824.784 509.273 826.07C509.208 823.504 510.804 820.557 511.864 818.069Z" fill="#5C6167"/>
<path d="M899.725 765.317C911.183 770.916 929.834 783.006 933.948 795.477C937.584 806.511 934.152 815.49 931.829 826.32C989.73 826.201 1045.19 819.487 1103.63 819.835C1109.51 811.21 1114.34 801.929 1118.04 792.176C1124.06 808.099 1127.56 822.775 1132.1 839.184L1152.16 911.791C1154.07 918.591 1156.46 931.488 1158.39 936.923C1153.34 942.935 1145.37 952.807 1139.91 957.802L1096.17 892.586C1090.67 884.434 1077.38 864.159 1071.14 857.306C1051.16 857.996 1030.96 860.608 1010.89 860.93C1003.24 861.048 994.442 861.35 986.855 862.17C980.975 862.439 939.691 864.159 937.315 865.209C929.256 864.625 919.268 865.268 911.222 865.865C907.416 865.767 903.813 865.682 900.007 865.767C900.526 831.892 898.964 799.744 899.725 765.317Z" fill="#40454B"/>
<path d="M600.037 838.095L607.828 837.819C608.253 871.274 608.365 904.729 608.164 938.184C608.156 957.395 608.901 983.276 607.99 1002.07L646.648 1049.1C652.754 1056.42 663.364 1068.2 668.588 1075.47L667.197 1076.08C660.043 1066.45 642.459 1049.29 633.709 1040.24C622.46 1028.61 609.972 1014.95 598.43 1003.92C570.919 1001.73 542.97 999.908 515.429 998.044C511.214 997.755 509.687 997.361 507.12 994.276C511.535 993.055 546.739 996.285 554.432 996.718C569.716 997.578 584.458 998.168 600.044 998.339C600.244 989.971 600.374 981.503 600.253 973.135C599.605 928.2 601.115 882.984 600.037 838.095Z" fill="white"/>
<path d="M911.223 865.866C919.269 865.269 929.257 864.625 937.316 865.209C926.218 884.447 888.707 918.48 869.617 931.253C868.508 929.034 869.446 926.908 870.391 924.827C878.503 912.651 891.995 898.435 899.483 886.495C899.168 885.163 900.395 869.824 900.303 866.398C904.49 866.411 907.108 866.45 911.223 865.866Z" fill="#5C6167"/>
<path d="M786.377 1096.55L790.637 1091.33C801.327 1092.38 824.998 1094.27 834.382 1097.48C807.423 1102.01 780.353 1103.17 753.119 1102.34C742.074 1102 730.583 1102.54 719.545 1101.84L719.551 1101.6C721.087 1099.99 779.762 1096.81 786.377 1096.55Z" fill="white"/>
<path d="M869.531 890.886L899.483 886.495C891.995 898.434 878.502 912.651 870.391 924.827C869.111 922.707 869.577 895.244 869.531 890.886Z" fill="#40454B"/>
<path d="M668.588 1075.47C671.101 1078.55 673.759 1081.66 675.944 1084.97C673.116 1082.21 669.703 1079.05 667.196 1076.08L668.588 1075.47Z" fill="#969AA0"/>
<path d="M843.577 904.263C843.957 904.827 843.688 928.758 843.642 932.414C843.511 943.585 842.382 954.73 840.276 965.705C835.99 988.198 827.702 1013.29 807.903 1026.55C793.872 1036.09 776.593 1039.57 759.964 1036.22C731.24 1030.38 708.048 997.492 692.967 974.795C689.43 969.21 681.785 954.264 679.265 948.475C686.602 955.748 692.009 963.729 698.768 971.015C715.004 988.034 737.559 1006.03 762.037 1001.99C804.202 995.024 834.022 968.114 838.852 925.181C839.475 919.674 842.507 910.748 843.577 904.263Z" fill="#40454B"/>
<path d="M686.326 877.103L686.641 876.177C687.606 873.289 688.183 869.915 688.945 866.903C695.802 839.848 715.07 815.083 739.082 801.083C746.006 797.046 760.115 794.329 766.796 799.796L767.045 801.339C765.614 802.96 764.82 802.704 762.018 802.861C746.931 803.715 729.271 815.195 719.355 826.018C707.556 838.896 694.628 867.277 693.578 884.723C692.967 886.508 693.512 886.088 692.331 886.679C689.89 884.611 687.875 880.089 686.326 877.103Z" fill="#F2F3F5"/>
<path d="M686.326 877.103C687.875 880.089 689.889 884.611 692.331 886.679C693.512 886.088 692.967 886.508 693.578 884.723C694.162 893.197 694.319 901.506 694.956 909.96C696.577 931.502 702.955 947.537 711.021 967.287L714.374 973.719C711.664 971.993 707.936 969.774 705.593 967.733C693.696 959.522 685.67 927.327 684.548 912.927C683.865 904.204 682.283 884.408 686.326 877.103Z" fill="white"/>
<path d="M705.594 967.733C707.372 966.656 708.875 967.09 711.021 967.287L714.374 973.719C711.664 971.993 707.937 969.774 705.594 967.733Z" fill="#A5AAAF"/>
<path d="M456.73 260C471.565 279.123 487.795 302.197 515.049 301.234C508.764 304.685 502.457 308.096 496.129 311.466L496.817 311.455C511.988 311.072 527.866 305.903 543.933 304.431C578.91 301.478 614.125 305.525 647.521 316.334C655.589 318.957 672.709 323.788 672.689 334.133C672.643 358.85 672.61 383.573 672.597 408.292L673.057 509.793C673.057 510.868 672.781 511.475 672.203 512.336C648.704 512.793 624.078 521.108 603.988 531.5C563.729 552.324 539.626 591.565 533.489 635.639C533.204 637.684 532.512 642.562 531.862 644.439C529.186 678.724 539.745 714.207 562.188 740.514C564.189 742.863 566.234 745.18 568.322 747.458C567.988 750.497 556.533 764.169 553.933 767.648L527.309 802.934C524.814 806.235 517.337 816.717 514.913 819.277L511.864 818.069C477.077 812.051 438.756 807.896 403.587 803.039L399.91 802.494C398.619 796.974 398.436 756.378 398.275 748.397C394.576 744.892 378.058 722.549 373.702 716.944C354.787 692.954 336.073 668.806 317.561 644.502C311.977 637.627 312.813 641.713 305.569 640.04C297.738 591.324 312.311 531.933 330.867 486.752C341.709 460.356 363.829 430.294 363.893 401.144C363.925 386.576 362.297 345.919 356.237 333.734C363.103 327.675 374.469 319.813 382.134 314.263L422.814 284.801L422.811 284.358C428.622 281.404 450.528 264.724 456.73 260Z" fill="#DADADA"/>
<path d="M317.561 644.502C324.294 644.403 352.864 643.88 358.238 644.648L446.128 644.64C454.475 644 467.535 644.395 476.16 644.398L531.862 644.439C529.185 678.724 539.744 714.207 562.188 740.514C564.189 742.863 566.234 745.18 568.322 747.458C567.988 750.497 556.533 764.169 553.933 767.648L527.309 802.934C524.813 806.235 517.337 816.717 514.913 819.277L511.864 818.069C477.077 812.05 438.755 807.896 403.587 803.039L399.909 802.494C398.619 796.974 398.435 756.378 398.275 748.396C394.575 744.892 378.058 722.549 373.701 716.944C354.787 692.954 336.073 668.806 317.561 644.502Z" fill="#969AA0"/>
<path d="M358.238 644.648L446.129 644.641C442.748 646.748 366.047 646.351 358.238 644.648Z" fill="#81858D"/>
<path d="M456.73 260C471.566 279.123 487.795 302.197 515.049 301.234C508.764 304.685 502.457 308.096 496.129 311.466C474.66 322.381 454.575 335.825 436.301 351.513C433.482 353.896 426.354 359.945 424.104 362.64L420.643 364.731C427.376 354.372 436.681 350.305 438.14 335.789C439.065 326.575 427.433 289.807 422.814 284.801L422.811 284.358C428.623 281.404 450.528 264.724 456.73 260Z" fill="#DADADA"/>
<path d="M492.454 380.774C502.66 380.672 513.296 392.731 503.104 399.822C465.294 426.131 436.397 461.397 418.396 503.86C416.3 508.803 414.229 512.794 409.827 516.176C398.009 521.19 392.988 506.883 396.785 497.98C405.305 478.002 420.065 451.247 433.441 434.394C444.529 420.424 477.182 389.083 492.454 380.774Z" fill="white"/>
<path d="M524.359 359.729C523.621 358.206 523.691 358.304 523.766 356.598C525.795 354.77 528.972 354.987 530.918 356.716C537.498 355.678 543.834 359.654 545.761 366.032C547.687 372.408 544.614 379.229 538.561 382.009C532.509 384.79 525.333 382.676 521.752 377.059C518.172 371.442 519.285 364.044 524.359 359.729Z" fill="white"/>
<path d="M524.359 359.729C523.621 358.206 523.691 358.304 523.766 356.598C525.795 354.77 528.972 354.987 530.918 356.716C528.497 357.098 526.227 358.141 524.359 359.729Z" fill="#DADADA"/>
<path d="M388.321 537.982C392.815 536.462 397.782 537.515 401.273 540.729C404.764 543.943 406.224 548.805 405.081 553.411C403.938 558.017 400.373 561.632 395.785 562.84C389.019 564.621 382.059 560.719 380.047 554.018C378.035 547.316 381.694 540.225 388.321 537.982Z" fill="white"/>
<path d="M742.37 651.757L1037.13 650.489C1036.17 659.178 1035.46 664.52 1033.5 673.119C1030.18 676.302 1023.3 685.655 1019.9 689.816C1009.12 702.858 998.413 715.953 987.768 729.106C988.444 739.621 988.346 750.51 988.405 761.078C977.183 761.432 919.184 761.872 912.608 763.854C897.219 766.23 899.529 760.559 899.955 748.141C876.068 748.443 847.416 750.346 823.345 751.541C821.671 749.204 819.23 746.605 817.301 744.413C807.555 733.281 797.744 721.007 788.203 709.56C785.525 704.972 779.389 698.277 775.944 693.84C765.339 680.194 751.846 666.03 742.37 651.757Z" fill="white"/>
<path d="M817.301 744.412C843.603 743.71 869.013 741.078 894.83 740.198L899.955 748.14C876.068 748.442 847.416 750.346 823.345 751.54C821.671 749.204 819.23 746.604 817.301 744.412Z" fill="#A5AAAF"/>
<path d="M885.623 259.178C905.698 272.806 926.409 289.112 946.431 303.334C940.42 321.666 934.822 340.129 929.631 358.711C910.698 344.473 891.326 330.827 871.54 317.793C864.977 313.379 846.373 301.997 841.838 297.522C859.885 293.805 877.118 274.911 885.623 259.178Z" fill="#DADADA"/>
<path d="M838.044 297.75C839.54 297.516 840.341 297.55 841.837 297.522C846.372 301.998 864.976 313.379 871.539 317.794C891.325 330.828 910.697 344.474 929.63 358.712C934.821 340.13 940.419 321.667 946.43 303.335L946.817 303.341C956.766 311.838 974.675 323.952 985.68 331.333C985.897 335.366 981.441 345.714 980.352 350.979C975.049 376.605 975.738 412.646 986.494 436.714C979.873 429.687 974.603 421.692 968.382 414.266C937.814 377.799 901.188 345.802 863.585 316.756C855.179 310.26 846.516 304.08 838.044 297.75Z" fill="#DADADA"/>
<path d="M531.863 644.439C532.512 642.562 533.204 637.683 533.489 635.639C539.626 591.565 563.729 552.323 603.988 531.5C624.078 521.108 648.704 512.793 672.204 512.336L674.573 514.793L674.691 520.003L674.1 520.175C664.84 522.787 653.739 524.498 643.971 526.973C575.19 544.404 526.354 613.276 544.575 683.922C548.189 697.935 564.101 732.401 575.383 740.625C573.734 742.673 571.123 746.381 569.013 747.576L568.322 747.458C566.234 745.18 564.189 742.863 562.189 740.513C539.745 714.206 529.186 678.724 531.863 644.439Z" fill="#F2F3F5"/>
<path d="M674.572 514.793C683.438 514.36 689.791 516.038 698.237 517.464C725.976 522.145 746.418 531.347 767.241 550.751C789.245 571.259 808.644 597.295 809.701 628.643C809.753 630.276 809.688 630.565 809.373 632.123L808.638 632.574C797.061 590.262 781.692 563.173 742.862 540.234C726.101 530.333 693.886 518.523 674.69 520.003L674.572 514.793Z" fill="#5C6167"/>
<path d="M133.31 636.03C156.087 635.472 187.879 641.46 209.827 640.065C214.882 640.191 218.274 640.493 223.299 641.123C225.767 639.995 295.371 640.628 305.569 640.04C312.812 641.713 311.976 637.627 317.56 644.502C336.073 668.806 354.787 692.954 373.701 716.944C378.058 722.549 394.575 744.891 398.275 748.396C398.435 756.378 398.618 796.974 399.909 802.494L403.587 803.039C438.755 807.896 477.076 812.05 511.864 818.069C510.804 820.557 509.208 823.504 509.273 826.07L507.893 828.125C508.29 829.969 508.443 830.737 510.018 831.873C514.821 835.345 589.541 838.325 600.037 838.095C601.114 882.983 599.604 928.2 600.253 973.135C600.373 981.503 600.243 989.97 600.043 998.339C584.457 998.168 569.715 997.578 554.431 996.718C546.739 996.285 511.535 993.055 507.12 994.276L506.683 994.322C506.695 988.723 507.545 970.45 504.623 966.84C500.128 967.752 497.838 968.153 493.293 968.428C492.661 965.304 492.324 962.351 491.931 959.193C486.221 957.96 482.942 957.546 477.953 954.343C475.104 952.512 470.328 947.602 467.709 946.808C462.469 940.625 453.646 932.887 447.643 926.31C442.917 924.912 404.528 917.666 401.092 918.112C385.013 940.658 368.796 963.099 352.441 985.441C348.086 991.421 335.452 1009.9 331.134 1014.27L327.238 1021.18C322.226 1025.83 317.921 1032.73 314.107 1038.51C279.385 1037.81 244.652 1037.76 209.928 1038.35C202.736 1037.7 195.388 1036.85 188.193 1036.09C183.711 1034.23 135.248 1031.81 125.237 1030.07C124.472 1025.77 68.4755 958.839 60.3746 948.98C55.4381 942.975 45.1215 933.136 42.8308 926.592C42.0739 925.063 41.8298 923.816 41.8476 922.122C42.3162 877.378 43.4715 832.64 42.5646 787.89C42.3762 778.596 43.0311 769.466 42.6581 760.04C43.1986 758.636 43.9753 757.198 44.651 755.833C50.766 746.408 58.5493 737.251 65.1187 728.082C86.842 697.752 112.324 666.66 133.31 636.03Z" fill="#4C5158"/>
<path d="M309.551 869.718C306.532 856.473 303.815 851.261 305.364 835.095C307.251 815.391 326.818 796.796 346.257 794.571C350.221 794.118 371.134 798.194 377.176 799.133C383.601 799.947 394.428 802.165 399.91 802.493L403.587 803.038C438.756 807.895 477.077 812.05 511.864 818.069C510.804 820.557 509.209 823.504 509.274 826.07L507.894 828.124C508.29 829.969 508.444 830.737 510.018 831.872C514.822 835.344 589.542 838.324 600.037 838.094C601.115 882.983 599.605 928.2 600.253 973.134C600.374 981.503 600.244 989.97 600.044 998.339C584.458 998.168 569.716 997.577 554.432 996.717C546.739 996.284 511.535 993.055 507.12 994.276L506.683 994.322C506.695 988.723 507.546 970.45 504.623 966.84C504.094 964.753 505.66 963.985 504.71 961.162C505.995 958.576 505.037 938.833 504.912 934.849C504.7 922.798 504.609 910.747 504.637 898.69C500.708 898.447 493.448 897.088 489.327 896.478L451.666 890.741L309.551 869.718Z" fill="white"/>
<path d="M377.175 799.133C383.601 799.947 394.427 802.165 399.909 802.493L403.587 803.038C398.441 803.649 392.757 805.001 387.518 804.955C384.462 804.928 385.048 804.889 383.229 802.907C380.012 802.677 379.411 805.368 376.388 805.309C375.235 803.583 375.527 802.572 375.627 800.478L377.175 799.133Z" fill="#A5AAAF"/>
<path d="M327.382 819.821C329.541 819.762 331.702 819.775 333.862 819.848C349.447 820.419 465.413 837.648 469.586 842.118C468.838 843.674 468.857 843.227 466.665 844.08C429.88 844.441 389.609 837.543 353.042 833.047C346.99 832.299 325.748 830.113 323.256 824.527C323.918 822.224 325.457 821.39 327.382 819.821Z" fill="#F2F3F5"/>
<path d="M42.8308 926.592C42.0739 925.062 41.8298 923.815 41.8476 922.122C42.3162 877.378 43.4715 832.64 42.5646 787.889C42.3762 778.595 43.0311 769.465 42.6581 760.04C43.018 760.408 43.3779 760.769 43.7377 761.136C59.3099 762.869 74.9658 763.184 90.6003 764.07C102.392 764.74 114.19 765.626 125.983 766.394C125.866 797.768 124.79 829.161 124.728 860.47L124.684 901.716C124.679 910.025 124.937 920.068 124.185 928.187C98.9203 927.99 74.1573 926.099 48.9477 925.108C46.95 925.03 44.5942 924.898 43.2645 926.506L42.8308 926.592Z" fill="white"/>
<path d="M133.31 636.03C156.087 635.472 187.879 641.46 209.827 640.065C214.882 640.191 218.274 640.493 223.299 641.123C216.617 649.419 210.178 657.74 204.023 666.43C180.074 700.252 153.615 733.011 129.983 766.991L125.983 766.394C114.19 765.626 102.392 764.74 90.6004 764.07C74.9659 763.184 59.31 762.869 43.7378 761.136C43.378 760.769 43.0181 760.408 42.6582 760.04C43.1987 758.636 43.9754 757.198 44.6511 755.833C50.7661 746.408 58.5494 737.251 65.1188 728.082C86.8421 697.752 112.324 666.66 133.31 636.03Z" fill="white"/>
<path d="M209.827 640.064C214.882 640.19 218.274 640.493 223.299 641.123C216.617 649.419 210.178 657.74 204.023 666.43C180.074 700.252 153.615 733.011 129.983 766.991L125.983 766.394C114.19 765.626 102.392 764.74 90.6004 764.07C74.9659 763.184 59.31 762.869 43.7378 761.136C43.378 760.769 43.0181 760.408 42.6582 760.04C43.1987 758.635 43.9754 757.198 44.6511 755.833C53.488 751.803 77.3415 755.078 87.6814 755.715C100.01 756.469 113.191 756.995 125.502 757.894C148.018 729.874 168.949 699.917 191.204 671.609C198.727 662.032 206.397 651.962 213.544 642.104L213.286 641.193L209.632 640.958L209.827 640.064Z" fill="#F2F3F5"/>
<path d="M248.638 853.723C259.813 863.686 263.489 865.196 278.434 865.071C276.96 879.761 276.541 885.425 277.093 900.016C283.574 900.646 291.957 903.009 298.883 903.993L369.083 913.386C374.85 914.108 397.761 915.854 401.092 918.112C385.014 940.658 368.796 963.099 352.442 985.441C348.086 991.421 335.453 1009.9 331.134 1014.27C323.192 998.057 311.608 981.674 302.631 966.118C288.449 941.032 272.621 916.661 260.457 890.512C254.482 877.66 248.743 868.169 248.638 853.723Z" fill="#40454B"/>
<path d="M125.983 766.394L129.983 766.991C131.075 780.098 130.779 799.067 130.984 812.746L131.877 880.948C131.978 897.344 131.723 914.383 132.262 930.707C137.155 935.426 147.266 947.891 151.38 953.706C146.014 951.153 145.418 944.622 139.794 946.709L139.555 947.983C140.973 949.847 143.678 951.579 143.228 953.772C137.283 948.849 131.823 941.419 125.122 936.043C109.347 935.485 93.5824 934.658 77.8357 933.569C64.0983 932.67 55.4147 933.818 43.2646 926.506C44.5943 924.898 46.9501 925.03 48.9478 925.108C74.1574 926.099 98.9204 927.99 124.185 928.187C124.937 920.067 124.679 910.025 124.684 901.716L124.728 860.47C124.79 829.161 125.866 797.768 125.983 766.394Z" fill="white"/>
<path d="M447.644 926.31C453.302 925.949 498.101 933.064 504.913 934.849C505.037 938.834 505.995 958.577 504.71 961.163C505.66 963.985 504.094 964.753 504.623 966.84C500.128 967.753 497.838 968.153 493.294 968.429C492.662 965.305 492.324 962.351 491.932 959.194C486.221 957.96 482.943 957.546 477.954 954.343C475.105 952.512 470.328 947.602 467.71 946.808C462.47 940.625 453.647 932.887 447.644 926.31Z" fill="#5C6167"/>
<path d="M491.932 959.193C496.3 959.955 500.311 960.624 504.709 961.162C505.66 963.985 504.094 964.753 504.623 966.84C500.128 967.752 497.838 968.153 493.293 968.428C492.661 965.304 492.324 962.35 491.932 959.193Z" fill="#A5AAAF"/>
<path d="M143.228 953.772C143.678 951.58 140.973 949.847 139.556 947.983L139.795 946.71C145.418 944.623 146.014 951.153 151.38 953.707C169.684 974.218 187.822 997.296 206.099 1018.35L205.198 1019.39C184.928 997.696 163.031 975.419 143.228 953.772Z" fill="white"/>
<path d="M206.099 1018.35C207.913 1020.33 212.025 1024.59 213.46 1026.56L213.253 1027.62L214.098 1027.49L214.168 1028.32L213.834 1028.14L214.118 1027.65L213.927 1027.35L213.137 1027.62L213.724 1027.06L212.794 1027.34C209.924 1024.59 207.844 1022.37 205.198 1019.39L206.099 1018.35Z" fill="#969AA0"/>
<path d="M507.042 0H667.918H841.798L842.5 0.176651C847.704 1.44899 853.552 1.81156 858.907 2.68684C911.242 11.2389 956.924 39.0977 985.34 84.2138C1026.57 149.681 1013.13 225.786 994.035 295.841C991.423 305.479 986.869 321.5 985.681 331.333C974.676 323.951 956.767 311.838 946.818 303.341L946.431 303.334C926.408 289.113 905.697 272.807 885.622 259.178C892.218 242.771 901.989 204.053 902.567 186.789C902.639 164.437 898.15 151.795 882.689 134.959C859.103 109.263 821.723 108.365 789.121 108.321L610.114 109.156L552.59 109.253C538.838 109.259 522.228 108.475 509.162 110.971C471.052 118.251 436.67 143.727 439.034 186.011C440.003 203.319 442.693 219.833 447.419 236.608C449.187 243.029 454.915 253.44 456.73 260C450.528 264.724 428.622 281.404 422.811 284.357L422.814 284.801L382.134 314.263C374.469 319.813 363.103 327.675 356.237 333.734C354.032 325.049 351.243 315.665 348.859 306.898C344.706 291.627 340.501 277.162 337.835 261.472C335.755 249.22 332.648 236.936 330.793 224.624C326.101 182.912 326.32 141.108 345.592 102.998C368.263 58.1665 417.746 20.3992 465.872 7.28358C472.73 5.29697 479.471 3.93109 486.504 2.81817C492.682 1.8405 501.362 2.049 507.042 0Z" fill="#4C5158"/>
<path d="M667.918 0H841.798L842.5 0.176651C847.704 1.44899 853.551 1.81156 858.906 2.68684C911.242 11.2389 956.924 39.0977 985.339 84.2138C1026.57 149.681 1013.13 225.786 994.035 295.841C991.423 305.479 986.869 321.5 985.681 331.333C974.675 323.951 956.766 311.838 946.818 303.341C951.287 293.364 953.885 278.373 957.226 268.179C967.286 237.533 973.238 212.922 970.574 180.476C969.471 167.03 969.038 158.308 964.431 144.719C954.66 115.47 937.138 89.4214 913.729 69.3538C889.54 48.2785 877.124 39.2089 846.136 29.7134C803.788 16.3712 759.931 9.99428 715.877 5.56829C708.225 4.79958 672.23 2.55044 667.918 0Z" fill="#40454B"/>
<path d="M422.811 284.357C421.752 282.247 421.21 273.083 419.209 267.924C402.927 225.923 418.902 242.641 430.765 208.179C434.415 196.083 433.477 182.162 435.643 169.829C441.591 135.955 464.715 111.815 499.048 106.765C512.773 104.745 526.848 104.907 541.017 104.826C560.184 104.745 579.351 104.792 598.517 104.966L749.996 104.601C765.398 104.551 780.662 104.481 796.143 104.208C811.302 103.835 825.687 101.872 840.801 104.018C882.263 109.908 911.847 143.581 902.567 186.788C902.639 164.436 898.151 151.795 882.689 134.959C859.104 109.263 821.724 108.365 789.121 108.32L610.115 109.155L552.59 109.253C538.838 109.259 522.228 108.474 509.162 110.971C471.053 118.251 436.67 143.726 439.035 186.01C440.003 203.319 442.693 219.833 447.419 236.608C449.188 243.029 454.915 253.44 456.73 259.999C450.528 264.723 428.623 281.403 422.811 284.357Z" fill="#40454B"/>
<path d="M467.597 27.8376C470.925 27.6656 485.091 27.9523 486.741 30.7109C486.511 30.9357 469.214 35.8366 466.986 36.4011C419.708 48.3778 388.697 81.6163 366.32 123.407C358.46 138.084 355.419 156.856 352.954 173.435C352.066 179.232 352.271 187.181 351.935 193.362C350.629 187.182 349.735 180.923 349.255 174.625C346.492 133.011 367.463 94.4251 396.479 65.9207C415.453 47.2815 440.332 29.6889 467.597 27.8376Z" fill="white"/>
<path d="M503.142 19.7328C508.389 19.5885 515.893 18.7494 520.186 22.0519C522.116 25.6417 520.198 27.5529 517.192 29.7885C512.059 29.8879 499.97 31.1406 499.266 24.3199C500.311 21.6186 500.7 21.5394 503.142 19.7328Z" fill="white"/>
<path d="M868.822 949.768C896.496 948.948 927.458 950.11 955.309 950.366C975.824 950.385 996.345 950.569 1016.86 950.917C1023.8 950.996 1043.05 950.786 1049.19 951.987C1053.29 953.556 1061.04 965.121 1063.95 969.236C1067.52 969.768 1077.07 971.461 1080.15 971.455C1095.59 971.231 1111.02 971.225 1126.45 971.428C1134.27 971.579 1150.35 972.879 1156.99 971.487C1172.57 970.792 1201.74 970.227 1216.97 971.402C1219.27 969.282 1221.64 966.867 1223.89 964.668C1226.75 961.373 1231.1 956.096 1234.56 953.739C1261.46 952.315 1289.79 955.039 1316.83 954.337C1321.01 954.232 1325.93 954.238 1330.07 954.415C1333.94 958.34 1339.29 964.057 1342.72 968.33C1336.17 971.35 1314.69 981.976 1309.48 982.363C1290.21 983.794 1268.27 983.19 1248.83 983.427L1110.22 984.661L963.532 986.282C944.809 986.446 916.833 987.522 898.885 986.564C888.693 987.043 879.552 987.089 869.387 987.05C868.133 985.021 868.783 954.389 868.822 949.768Z" fill="white"/>
<path d="M868.822 949.768C896.496 948.948 927.458 950.11 955.309 950.366C955.743 955.407 956.261 960.447 956.307 965.501C940.577 970.693 925.844 976.522 910.317 981.858C907.364 982.842 903.84 983.925 900.992 985.028L898.885 986.564C888.693 987.043 879.552 987.089 869.387 987.05C868.133 985.021 868.783 954.389 868.822 949.768Z" fill="white"/>
<path d="M1216.97 971.402C1219.27 969.282 1221.64 966.867 1223.89 964.668C1238.42 965.954 1252.05 965.961 1266.46 966.368L1266.2 966.893C1257.49 969.013 1242.46 970.037 1233.05 971.002C1208.31 973.542 1185.31 977.802 1160.3 976.102C1144.04 974.993 1127.38 975.938 1111.02 973.87C1103.62 973.279 1087.12 972.886 1080.15 971.455C1095.59 971.232 1111.02 971.225 1126.45 971.429C1134.27 971.579 1150.35 972.879 1156.99 971.488C1172.57 970.792 1201.74 970.227 1216.97 971.402Z" fill="white"/>
<path d="M327.238 1021.18C333.671 1020.29 361.322 1021.94 369.159 1022.19C397.74 1022.83 426.317 1023.66 454.889 1024.67C458.808 1027.71 475.936 1043.46 477.387 1047.41C477.084 1047.65 476.782 1047.89 476.48 1048.13C463.354 1047.48 444.737 1047.38 431.967 1047.21L209.92 1043.5L209.303 1042.13L210.268 1041.38C209.863 1040.16 209.854 1039.62 209.928 1038.35C244.652 1037.76 279.385 1037.81 314.107 1038.52C317.921 1032.73 322.226 1025.83 327.238 1021.18Z" fill="white"/>
<path d="M805.895 1071.86C813.907 1070.54 838.359 1071.66 847.835 1071.77L933.771 1072.42C936.462 1077.25 938.365 1080.86 940.669 1085.96C915.442 1087.64 888.818 1092.17 863.474 1094.29C855.074 1094.99 842.382 1097.72 834.382 1097.48C824.998 1094.27 801.327 1092.38 790.637 1091.33C793.439 1087.43 802.561 1074.31 805.895 1071.86Z" fill="white"/>
<path d="M125.237 1030.07C135.248 1031.81 183.711 1034.23 188.193 1036.09C195.388 1036.85 202.737 1037.7 209.929 1038.35C209.854 1039.62 209.864 1040.16 210.269 1041.38L209.303 1042.13L209.92 1043.5C151.75 1042.31 93.5735 1041.42 35.3936 1040.86L36.124 1036.76C40.315 1036.04 53.1085 1035.55 58.2994 1035.06C73.3197 1033.47 88.3655 1032.14 103.43 1031.06C109.997 1030.58 118.944 1029.59 125.237 1030.07Z" fill="white"/>
<path d="M209.303 1042.13C204.27 1040.46 191.373 1040.49 189.101 1038.34L189.097 1037.27L186.583 1036.6L188.193 1036.09C195.388 1036.85 202.737 1037.7 209.928 1038.35C209.854 1039.62 209.863 1040.16 210.268 1041.38L209.303 1042.13Z" fill="#F2F3F5"/>
<path d="M467.71 946.808C470.328 947.602 475.105 952.511 477.954 954.343C482.942 957.546 486.221 957.959 491.932 959.193C492.324 962.35 492.662 965.304 493.293 968.428C486.066 969.36 470.453 968.559 462.311 968.402C432.331 967.811 401.995 966.761 371.984 965.803C385.727 961.845 407.14 958.294 421.54 955.34C433.585 952.879 456.055 947.838 467.71 946.808Z" fill="white"/>
<path d="M581.658 1087.59C584.264 1089.77 585.467 1090.81 587.783 1093.36C590.835 1096.35 593.19 1098.96 596.02 1102.17C560.47 1100.42 516.482 1104.23 481.665 1101.11C486.164 1100.35 491.101 1099.64 495.625 1099.13C522.178 1096.14 549.359 1090.46 575.89 1088.05L581.658 1087.59Z" fill="white"/>
<path d="M581.659 1087.59C584.264 1089.77 585.467 1090.81 587.783 1093.36L586.761 1093.78C582.098 1093.54 579.731 1090.96 575.891 1088.05L581.659 1087.59Z" fill="#F2F3F5"/>
<path d="M3.7002 1039.77C14.4132 1038.63 25.378 1037.75 36.1238 1036.76L35.3934 1040.86C26.8233 1040.84 11.8151 1040.79 3.7002 1039.77Z" fill="white" fill-opacity="0.972549"/>
</svg>
