<svg width="2157" height="1775" viewBox="0 0 2157 1775" fill="none" xmlns="http://www.w3.org/2000/svg">
<path d="M1348.96 478.261C1376.22 474.958 1410.72 439.366 1421.54 416.152L1488.64 464.89C1494.57 469.198 1514.53 483.057 1519.04 487.195L1519.19 487.729C1523.94 489.687 1575.66 527.53 1581.07 532.503C1581.31 533.25 1581.55 533.997 1581.79 534.745C1567.35 579.455 1563.36 626.41 1574.23 672.404C1576.6 682.437 1579.61 692.435 1582.68 702.488C1584.16 704.131 1599.34 738.127 1600.98 741.712C1639.66 826.203 1671.62 926.925 1666.58 1021C1666.09 1029.34 1665.53 1037.67 1664.91 1046C1664.02 1058.56 1659.78 1073.36 1659.33 1082.91C1673.11 1066.76 1686.24 1049.86 1699.84 1033.54C1703.94 1028.61 1707.21 1024.23 1712.09 1020C1748.32 1020.12 1784.59 1022.14 1820.64 1020.25C1860.49 1019.68 1900.05 1018.46 1939.87 1016.18C1941.54 1016.08 1944.91 1016.04 1945.68 1017.4C1955.01 1026.9 1963.74 1037.81 1972.36 1048.02L2017.96 1101.94L2062.4 1153.71C2072.88 1165.89 2083.68 1177.14 2092.11 1190.75C2093.01 1192.79 2093.04 1200.79 2092.91 1203.17C2091.76 1224.74 2097.05 1406.61 2092.63 1410.75L2010.15 1502.14C2007.02 1505.62 1983.39 1531.38 1981.95 1534.17C1978.27 1537.2 1968.71 1547.77 1965.52 1551.73L1956.32 1561.99L1926.84 1562.2C1919.46 1563.85 1893.12 1563.47 1884.04 1563.77C1837.8 1565.26 1791.92 1561.67 1745.72 1561.84C1734.31 1561.88 1721.69 1559.28 1710.38 1560.55C1706.1 1557.18 1691.21 1537.4 1686.71 1531.65C1679.66 1531.61 1665.91 1531.88 1659.7 1530.26C1667.28 1529.95 1677.39 1530.95 1684.57 1529.67C1662.05 1503.22 1641.23 1472.69 1618.52 1446.13C1607.78 1433.57 1596.86 1416.85 1585.55 1405.3L1584.17 1387.01C1558.23 1387.9 1531.24 1390.18 1506.1 1390.91C1475.4 1428.23 1444.26 1463.28 1404.68 1491.33C1401.23 1493.77 1395.43 1497.53 1392.42 1500.1C1392.39 1504.5 1391.89 1525.06 1393.22 1527.81C1390.69 1538.7 1395.84 1579.62 1393.16 1587.77C1359.86 1632.39 1325.1 1678.03 1292.56 1723.09C1296.55 1723.12 1320.53 1723.04 1322.96 1723.9L1499.21 1726.02C1501.98 1733.04 1505.95 1739.67 1509.64 1746.27C1496.14 1748.89 1478.77 1750.32 1464.81 1751.8L1409.3 1758.04C1393.01 1759.86 1354.27 1765.6 1339.81 1765.9C1294.73 1772.01 1255.05 1775.97 1209.52 1774.39C1178.55 1773.32 1146.35 1774.49 1115.18 1774.06C1104.59 1775.7 956.665 1774.67 954.885 1773.57C950.465 1768.39 936.785 1752.33 931.415 1749.43L932.015 1748.87C930.255 1744.44 912.305 1727.12 908.595 1722.25C891.26 1699.55 814.995 1620.86 811.136 1598.88C809.321 1592 812.141 1560.95 808.54 1555.88C810.15 1553.7 809.596 1550.17 809.516 1547.24L809.122 1504.28C809.157 1485.72 808.198 1465.1 807.802 1446.29C788.158 1441.96 753.619 1437.99 732.689 1434.84L572.808 1410.91C552.518 1407.83 518.423 1404.61 499.6 1399.32C496.655 1398.5 495.341 1397.79 493.553 1395.19C485.353 1383.3 484.643 1355.43 486.951 1341.35C489.471 1325.97 499.006 1306.89 511.989 1297.73C521.934 1290.72 534.414 1281.7 546.357 1279.02C555.904 1276.88 624.951 1288.35 638.258 1290.72C638.327 1262.42 637.583 1233.31 637.291 1204.93C600.246 1158.63 564.648 1110.97 527.728 1064.56C520.214 1055.11 511.773 1044.92 505.009 1035.06C496.338 1024.95 491.728 1032.36 487.17 1028.1C483.512 1018.46 483.627 981.139 484.404 969.34C489.154 899.384 505.314 830.285 535.819 766.953C554.052 729.099 583.116 682.577 581.844 639.803C581.205 618.294 578.784 551.064 568.681 535.262C603.182 511.732 642.164 481.951 676.236 457.087L677.312 455.401C682.146 453.798 724.234 422.467 731.035 417.278C747.649 448.562 787.415 486.053 825.584 483.745C834.831 481.913 844.274 479.111 852.858 475.179C959.635 426.259 1065.73 413.848 1181.85 435.526C1212.59 441.273 1242.93 448.978 1272.68 458.596C1293.8 465.196 1317.25 477.088 1337.54 478.41C1341.22 478.325 1345.31 478.137 1348.96 478.261Z" fill="#FE5757"/>
<path d="M1820.63 1020.25C1860.49 1019.68 1900.04 1018.46 1939.86 1016.18C1941.53 1016.08 1944.91 1016.04 1945.68 1017.4C1955.01 1026.9 1963.73 1037.81 1972.35 1048.02L2017.96 1101.94L2062.39 1153.71C2072.87 1165.89 2083.67 1177.14 2092.1 1190.75C2093 1192.79 2093.04 1200.79 2092.91 1203.17C2091.76 1224.74 2097.04 1406.61 2092.62 1410.75L2010.14 1502.14C2007.01 1505.62 1983.39 1531.38 1981.95 1534.17C1978.27 1537.2 1968.71 1547.77 1965.51 1551.73L1956.31 1561.99L1926.83 1562.2C1919.45 1563.85 1893.12 1563.47 1884.03 1563.77C1837.79 1565.26 1791.91 1561.67 1745.71 1561.84C1734.3 1561.88 1721.69 1559.28 1710.37 1560.55C1706.1 1557.18 1691.2 1537.4 1686.7 1531.65C1679.65 1531.61 1665.9 1531.88 1659.69 1530.26C1667.27 1529.95 1677.38 1530.95 1684.56 1529.67C1662.04 1503.22 1641.23 1472.69 1618.51 1446.13C1607.77 1433.57 1596.86 1416.85 1585.54 1405.3L1584.16 1387.01C1558.23 1387.9 1531.23 1390.18 1506.09 1390.91C1475.39 1428.23 1444.25 1463.28 1404.67 1491.33C1401.22 1493.77 1395.42 1497.53 1392.41 1500.1C1392.38 1504.5 1391.88 1525.06 1393.21 1527.81C1390.68 1538.7 1395.83 1579.62 1393.15 1587.77C1359.85 1632.39 1325.09 1678.03 1292.55 1723.09C1296.54 1723.12 1320.52 1723.04 1322.95 1723.9L1499.2 1726.02C1501.97 1733.04 1505.94 1739.67 1509.63 1746.27C1496.13 1748.89 1478.76 1750.32 1464.8 1751.8L1409.29 1758.04C1393 1759.86 1354.26 1765.6 1339.8 1765.9C1294.72 1772.01 1255.04 1775.97 1209.51 1774.39C1178.54 1773.32 1146.34 1774.49 1115.17 1774.06C1104.58 1775.7 956.665 1774.67 954.885 1773.57C950.465 1768.39 936.785 1752.33 931.415 1749.43L932.015 1748.87C930.255 1744.44 912.305 1727.12 908.595 1722.25C891.26 1699.55 814.995 1620.86 811.136 1598.88C809.321 1592 812.141 1560.95 808.54 1555.88C810.15 1553.7 809.596 1550.17 809.516 1547.24L809.122 1504.28C809.157 1485.72 808.198 1465.1 807.802 1446.29C788.158 1441.96 753.619 1437.99 732.689 1434.84L572.808 1410.91C552.518 1407.83 518.423 1404.61 499.6 1399.32C496.655 1398.5 495.341 1397.79 493.553 1395.19C485.353 1383.3 484.643 1355.43 486.951 1341.35C489.471 1325.97 499.006 1306.89 511.989 1297.73C521.934 1290.72 534.414 1281.7 546.357 1279.02C555.904 1276.88 624.951 1288.35 638.258 1290.72C655.092 1291.83 678.244 1296.25 695.68 1298.5C738.525 1304.03 781.634 1311 824.523 1316.09C828.505 1311.93 836.535 1301.06 840.31 1296.2L869.256 1258.88C874.221 1252.47 909.815 1207.34 911.965 1202.54C914.845 1198.85 917.895 1195.9 921.165 1192.57C924.485 1184.58 955.525 1147.83 962.695 1138.42C977.265 1139.68 992.075 1139.83 1006.74 1140.66C1008.64 1138.52 1010.33 1136.68 1012.34 1134.64C1014.39 1130.41 1025.65 1116.85 1029.1 1112.01C1043.9 1091.25 1064.09 1068.52 1077.84 1047.45L1173.08 1049C1176.72 1048.99 1186.99 1048.67 1189.89 1049.47C1200.95 1047.64 1308.78 1043.86 1318.28 1045.5C1354.98 1088.3 1389.72 1133.28 1426.1 1176.4C1429.76 1180.74 1434.21 1186.09 1437.3 1190.79C1438.89 1194.86 1442.45 1200.26 1443.04 1203.48L1444.84 1229.62C1448.44 1229.37 1454.42 1229.15 1457.81 1228.66C1470.88 1226.56 1492.12 1227.25 1506.09 1226.74C1532.92 1225.76 1559.99 1224.52 1586.81 1224C1586.46 1207.18 1585.51 1190.74 1585.31 1173.69C1609.17 1143.15 1635.17 1113.41 1659.32 1082.91C1673.1 1066.76 1686.23 1049.86 1699.83 1033.54C1703.93 1028.61 1707.2 1024.23 1712.08 1020C1748.31 1020.12 1784.59 1022.14 1820.63 1020.25Z" fill="#202B5B"/>
<path d="M1820.64 1020.25C1860.5 1019.68 1900.05 1018.46 1939.87 1016.18C1941.54 1016.08 1944.92 1016.04 1945.69 1017.4C1955.02 1026.9 1963.74 1037.81 1972.36 1048.02L2017.97 1101.94L2062.4 1153.71C2072.88 1165.89 2083.68 1177.14 2092.11 1190.75C2093.01 1192.79 2093.05 1200.79 2092.92 1203.17C2091.77 1224.74 2097.05 1406.61 2092.63 1410.75L2010.15 1502.14C2007.02 1505.62 1983.4 1531.38 1981.96 1534.17C1978.28 1537.2 1968.72 1547.77 1965.52 1551.73L1956.32 1561.99L1926.84 1562.2C1919.46 1563.85 1893.13 1563.47 1884.04 1563.77C1837.8 1565.26 1791.92 1561.67 1745.72 1561.84C1734.31 1561.88 1721.7 1559.28 1710.38 1560.55C1706.11 1557.18 1691.21 1537.4 1686.71 1531.65C1679.66 1531.61 1665.91 1531.88 1659.7 1530.26C1667.28 1529.95 1677.39 1530.95 1684.57 1529.67C1662.05 1503.22 1641.24 1472.69 1618.52 1446.13C1607.78 1433.57 1596.87 1416.85 1585.55 1405.3L1584.17 1387.01C1616.43 1385.99 1649.83 1382.85 1682.26 1381.8C1695.07 1381.38 1709.12 1379.84 1721.8 1379.87C1758.33 1432.22 1793.18 1487.35 1829.83 1539.44C1835.34 1539.66 1855.71 1511.77 1861.99 1505.96C1855.91 1487.85 1850.4 1466.18 1845.14 1447.46L1818.98 1354.87L1803.57 1300.69C1800.56 1290.11 1796.33 1276.81 1794.55 1266.21L1791.03 1266.18L1789.86 1265.19C1783.44 1255.45 1778 1250.25 1769.94 1241.96C1749.09 1242.11 1726.69 1244.03 1705.53 1244.7C1652.96 1246 1600.42 1247.94 1547.9 1250.52C1522.91 1235.83 1486.47 1231.35 1457.82 1228.66C1470.89 1226.56 1492.13 1227.25 1506.1 1226.74C1532.93 1225.76 1560 1224.52 1586.82 1224C1586.47 1207.18 1585.52 1190.74 1585.32 1173.69C1609.18 1143.15 1635.18 1113.41 1659.33 1082.91C1673.11 1066.76 1686.24 1049.86 1699.84 1033.54C1703.94 1028.61 1707.21 1024.23 1712.09 1020C1748.32 1020.12 1784.6 1022.14 1820.64 1020.25Z" fill="#61708F"/>
<path d="M2092.1 1190.75C2093 1192.79 2093.04 1200.79 2092.91 1203.17C2091.76 1224.74 2097.04 1406.61 2092.62 1410.75C2063.35 1412.06 2034.41 1413.8 2005.18 1415.71C1987.59 1416.86 1969.69 1417 1952.05 1418.16L1951.97 1417.16C1947.63 1409.09 1952.01 1225.96 1948.92 1199.95C1952.81 1197.48 1956.93 1195.03 1960.51 1192.16L1961.27 1192.3C1969.85 1195.21 2021.33 1191.2 2040.84 1194.8C2049.76 1195.62 2069.13 1192.59 2079.58 1192.66C2083.61 1193.71 2088.87 1193.64 2092.1 1190.75Z" fill="#202B5B"/>
<path d="M1960.51 1192.16L1961.27 1192.3C1969.85 1195.21 2021.33 1191.2 2040.84 1194.8C2015.45 1196.3 1990.34 1199.33 1964.75 1200.49L1961.74 1406.67L1951.97 1417.16C1947.63 1409.09 1952.01 1225.96 1948.92 1199.95C1952.81 1197.48 1956.93 1195.03 1960.51 1192.16Z" fill="#9CA1B6"/>
<path d="M1820.64 1020.25C1860.5 1019.68 1900.05 1018.46 1939.87 1016.18C1941.54 1016.08 1944.92 1016.04 1945.69 1017.4C1955.02 1026.9 1963.74 1037.81 1972.36 1048.02L2017.97 1101.94L2062.4 1153.71C2072.88 1165.89 2083.68 1177.14 2092.11 1190.75C2088.88 1193.64 2083.62 1193.71 2079.59 1192.66C2069.14 1192.59 2049.77 1195.62 2040.85 1194.8C2021.34 1191.2 1969.86 1195.21 1961.28 1192.3L1960.52 1192.16C1957.48 1186.65 1932.54 1157.07 1926.79 1150.06L1856.84 1065.6C1845.57 1052.09 1830.44 1035.17 1820.16 1021.37L1820.64 1020.25Z" fill="#304065"/>
<path d="M1961.28 1192.3C1994.63 1191.77 2049.34 1189.33 2081.26 1191.54L2079.59 1192.66C2069.14 1192.59 2049.77 1195.62 2040.85 1194.8C2021.34 1191.2 1969.86 1195.21 1961.28 1192.3Z" fill="#8188A2"/>
<path d="M1952.06 1418.16C1969.7 1417 1987.6 1416.86 2005.19 1415.71C2034.42 1413.8 2063.35 1412.06 2092.63 1410.75L2010.15 1502.14C2007.02 1505.62 1983.4 1531.38 1981.96 1534.17C1978.28 1537.2 1968.72 1547.77 1965.52 1551.73L1956.32 1561.99L1926.84 1562.2C1898.22 1560.6 1853.87 1562.88 1823.75 1563.14C1852.99 1532.68 1880.12 1498.47 1908.84 1467.36C1923.35 1451.64 1938.27 1434.53 1952.06 1418.16Z" fill="#181942"/>
<path d="M1794.54 1266.21L1904.89 1371.21C1914.94 1380.86 1937.87 1400.43 1945.81 1410.24C1918.43 1441.2 1888.35 1474.34 1861.98 1505.96C1855.9 1487.85 1850.39 1466.18 1845.13 1447.46L1818.97 1354.87L1803.56 1300.69C1800.55 1290.11 1796.32 1276.81 1794.54 1266.21Z" fill="#202B5B"/>
<path d="M1820.16 1021.37C1830.44 1035.17 1845.57 1052.09 1856.84 1065.6L1926.79 1150.06C1932.54 1157.07 1957.48 1186.65 1960.52 1192.16C1956.94 1195.03 1952.82 1197.48 1948.93 1199.95C1901.43 1141.9 1854.81 1080.56 1807.77 1021.85L1820.16 1021.37Z" fill="#FEFEFE"/>
<path d="M1769.94 1241.96C1760.59 1233.92 1757.37 1232.09 1745.95 1227.72C1737.37 1224.44 1721.01 1226.3 1717.25 1220.73C1717.49 1218.42 1717.57 1216.64 1719.77 1215.08C1740.89 1200.14 1772.89 1219.85 1786.63 1237.11C1791.02 1242.62 1802.04 1263.82 1789.86 1265.19C1783.44 1255.45 1778 1250.25 1769.94 1241.96Z" fill="#FEFEFE"/>
<path d="M1077.84 1047.45L1173.08 1049C1176.72 1048.99 1186.99 1048.67 1189.89 1049.47C1206.02 1068.1 1222.05 1088.61 1237.79 1107.73C1244.49 1115.86 1259.8 1133.79 1264.83 1141.45C1258.79 1141.74 1251.05 1141.89 1245.24 1142.92C1203.21 1142.36 1161.82 1146.77 1121.08 1147.01C1083.1 1197.69 1046.71 1250.02 1008.83 1300.77C1001.05 1311.2 982.115 1339.43 974.465 1347.38C966.845 1347.26 957.505 1347.05 950.015 1347.93C955.165 1348.99 956.965 1349.27 962.285 1349.54V1607.61C927.835 1604.85 892.295 1603.99 857.681 1601.77C850.065 1601.28 820.287 1599.01 814.955 1599.53L813.214 1601.56L811.136 1598.88C809.321 1592 812.141 1560.95 808.54 1555.88C810.15 1553.7 809.596 1550.17 809.516 1547.24L809.122 1504.28C809.157 1485.72 808.198 1465.1 807.802 1446.29C788.158 1441.96 753.619 1437.99 732.689 1434.84L572.808 1410.91C552.518 1407.83 518.423 1404.61 499.6 1399.32C496.655 1398.5 495.341 1397.79 493.553 1395.19C485.353 1383.3 484.643 1355.43 486.951 1341.35C489.471 1325.97 499.006 1306.89 511.989 1297.73C521.934 1290.72 534.414 1281.7 546.357 1279.02C555.904 1276.88 624.951 1288.35 638.258 1290.72C655.092 1291.83 678.244 1296.25 695.68 1298.5C738.525 1304.03 781.634 1311 824.523 1316.09C828.505 1311.93 836.535 1301.06 840.31 1296.2L869.256 1258.88C874.221 1252.47 909.815 1207.34 911.965 1202.54C914.845 1198.85 917.895 1195.9 921.165 1192.57C924.485 1184.58 955.525 1147.83 962.695 1138.42C977.265 1139.68 992.075 1139.83 1006.74 1140.66C1008.64 1138.52 1010.33 1136.68 1012.34 1134.64C1014.39 1130.41 1025.65 1116.85 1029.1 1112.01C1043.9 1091.25 1064.09 1068.52 1077.84 1047.45Z" fill="#61708F"/>
<path d="M1077.85 1047.45L1173.09 1049C1188.15 1067.06 1203.07 1085.23 1217.85 1103.53C1224.84 1112.09 1233.78 1123.69 1241.25 1131.31C1165.01 1133.34 1088.73 1132.96 1012.35 1134.64C1014.4 1130.41 1025.66 1116.85 1029.11 1112.01C1043.91 1091.25 1064.1 1068.52 1077.85 1047.45Z" fill="#61708F"/>
<path d="M1173.09 1049C1176.73 1048.99 1187 1048.67 1189.9 1049.47C1206.03 1068.1 1222.06 1088.61 1237.8 1107.73C1244.5 1115.86 1259.81 1133.79 1264.84 1141.45C1258.8 1141.74 1251.06 1141.89 1245.25 1142.92C1203.22 1142.36 1161.83 1146.77 1121.09 1147.01C1083.11 1197.69 1046.72 1250.02 1008.84 1300.77C1001.06 1311.2 982.115 1339.43 974.465 1347.38C966.845 1347.26 957.505 1347.05 950.015 1347.93C912.525 1347.98 874.521 1343.52 837.029 1341.94C828.716 1341.59 815.092 1343.66 814.076 1332.51C816.241 1328.21 821.83 1326.03 826.423 1326.3C872.291 1329.03 918.235 1334.32 964.105 1337.07C975.825 1319.1 997.765 1291.29 1011 1273.41L1105.8 1145.6C1074.25 1142.86 1039.39 1142.91 1006.75 1140.66C1008.65 1138.52 1010.34 1136.68 1012.35 1134.64C1088.73 1132.96 1165.01 1133.34 1241.25 1131.31C1233.78 1123.69 1224.84 1112.09 1217.85 1103.53C1203.07 1085.23 1188.15 1067.06 1173.09 1049Z" fill="#FEFEFE"/>
<path d="M519.484 1320.3L521.111 1320.12C542.973 1317.67 736.271 1346.71 750.779 1355.02L750.808 1356.39L748.049 1357.81C716.174 1358.61 670.451 1352.73 637.799 1349.57C601.145 1346.02 559.858 1340.31 523.776 1332.67C519.887 1331.85 517.629 1330.75 515.795 1327.46C516.195 1324.01 517.363 1323.05 519.484 1320.3Z" fill="#FEFEFE"/>
<path d="M1445.24 1393.48C1444.23 1386.51 1444.38 1352.61 1444.33 1344.12C1444.16 1307.74 1442.53 1268.83 1443.71 1232.65C1453.5 1229.98 1494.63 1265.53 1498.77 1276.25C1504.9 1292.08 1498.15 1315.48 1493.79 1330.56C1583.26 1323.7 1674.61 1324.02 1764.24 1317.43C1767.69 1317.17 1774.68 1315.89 1776.97 1313.4C1788.3 1301.07 1790.95 1282.28 1791.02 1266.18L1794.54 1266.21C1796.32 1276.81 1800.55 1290.11 1803.56 1300.69L1818.97 1354.87L1845.13 1447.46C1850.39 1466.18 1855.9 1487.85 1861.98 1505.96C1855.7 1511.77 1835.33 1539.66 1829.82 1539.44C1793.17 1487.35 1758.32 1432.22 1721.79 1379.87C1709.11 1379.84 1695.06 1381.38 1682.25 1381.8C1649.82 1382.85 1616.42 1385.99 1584.16 1387.01C1558.23 1387.9 1531.23 1390.18 1506.09 1390.91C1485.76 1391.35 1465.66 1392.92 1445.24 1393.48Z" fill="#181942"/>
<path d="M1189.9 1049.47C1200.96 1047.64 1308.79 1043.86 1318.29 1045.5C1354.99 1088.3 1389.73 1133.28 1426.11 1176.4C1429.77 1180.74 1434.22 1186.09 1437.31 1190.79C1424.31 1191.75 1316 1196.91 1312.75 1199.08C1309.4 1196.92 1270.63 1148.44 1266.92 1143.04C1259.43 1143.3 1252.75 1143.7 1245.25 1142.92C1251.06 1141.89 1258.8 1141.74 1264.84 1141.45C1259.81 1133.79 1244.5 1115.86 1237.8 1107.73C1222.06 1088.61 1206.03 1068.1 1189.9 1049.47Z" fill="#304065"/>
<path d="M1268.58 1754.9C1279.6 1742.18 1286.98 1720.25 1304.28 1723.85C1308.2 1724.67 1318.76 1724.4 1322.96 1723.9L1499.21 1726.02C1501.98 1733.04 1505.95 1739.67 1509.64 1746.27C1496.14 1748.89 1478.77 1750.32 1464.81 1751.8L1409.3 1758.04C1393.01 1759.86 1354.27 1765.6 1339.81 1765.9C1328.77 1759.49 1275.52 1759.66 1268.58 1754.9Z" fill="#C7B0BD"/>
<path d="M950.015 1347.93C957.505 1347.05 966.845 1347.26 974.465 1347.38C971.245 1354.44 973.315 1583.7 973.285 1611.89C982.175 1621.12 991.055 1633.2 999.575 1643.12C1021.25 1668.37 1042.46 1696.65 1064.54 1721.33L1061.52 1721.92L959.325 1615.58C950.655 1615 941.975 1614.41 933.295 1613.93C916.805 1612.54 898.245 1611.97 882.024 1610.31C867.287 1608.8 823.343 1609.67 813.214 1601.56L814.955 1599.53C820.287 1599.01 850.065 1601.28 857.681 1601.77C892.295 1603.99 927.835 1604.85 962.285 1607.61V1349.54C956.965 1349.27 955.165 1348.99 950.015 1347.93Z" fill="#9CA1B6"/>
<path d="M1445.25 1393.48C1465.67 1392.92 1485.77 1391.35 1506.1 1390.91C1475.4 1428.23 1444.26 1463.28 1404.68 1491.33C1401.23 1493.77 1395.43 1497.53 1392.42 1500.1C1392.1 1494.79 1391.78 1493.86 1394.78 1489.9C1403.61 1478.82 1438.03 1436.69 1442.71 1426.51C1442.34 1418.52 1443.58 1400.93 1445.25 1393.48Z" fill="#7F2B2B"/>
<path d="M1268.57 1754.9C1275.51 1759.66 1328.76 1759.49 1339.8 1765.9C1294.72 1772.01 1255.04 1775.97 1209.51 1774.39C1178.54 1773.32 1146.34 1774.49 1115.17 1774.06C1120.26 1772.87 1133.91 1772.51 1139.93 1772.09C1180.49 1769.2 1221.07 1767.65 1261.65 1764.46C1264.31 1761.04 1266.18 1758.53 1268.57 1754.9Z" fill="#AA8398"/>
<path d="M1312.75 1199.08C1316 1196.91 1424.31 1191.75 1437.31 1190.79C1438.9 1194.86 1442.46 1200.26 1443.05 1203.48C1421.13 1205.11 1398.89 1205.22 1376.9 1206.18C1358.4 1207 1339.92 1208.46 1321.42 1208.98L1312.75 1199.08Z" fill="#9CA1B6"/>
<path d="M1396.79 1433.43C1411.72 1432.26 1425.75 1427.45 1442.71 1426.51C1438.03 1436.69 1403.61 1478.82 1394.78 1489.9C1395.14 1471.07 1395.82 1452.24 1396.79 1433.43Z" fill="#181942"/>
<path d="M1064.55 1721.33C1069.75 1727.16 1076.78 1734.77 1080.56 1741.34L1080.32 1741.94C1076.14 1738.39 1064.55 1726.34 1061.53 1721.92L1064.55 1721.33Z" fill="#61708F"/>
<path d="M1111.7 1372.88C1114.79 1367.41 1116.95 1361.19 1120.29 1355.79C1142.73 1319.53 1175.13 1280.64 1220.87 1281.8C1224.64 1283.98 1228.35 1285.01 1228.11 1289.59C1225.66 1292.13 1206.03 1294.04 1201.02 1296.08C1186.24 1302.11 1170.1 1313.46 1158.71 1324.01C1150.63 1331.51 1130.73 1357.9 1129.85 1367.93C1126.54 1380.19 1120.19 1392.66 1117.53 1405.94C1110.02 1443.43 1114.22 1484.2 1126.03 1520.41C1129.09 1529.81 1133.51 1538.27 1136.3 1547.99C1137.59 1552.44 1142.96 1557.99 1143.98 1564.36L1142.78 1564.95C1096.19 1548.63 1082.36 1409.08 1111.7 1372.88Z" fill="#61708F"/>
<path d="M1111.7 1372.88C1114.79 1367.41 1116.95 1361.19 1120.29 1355.79C1142.73 1319.53 1175.14 1280.64 1220.88 1281.8C1224.65 1283.98 1228.36 1285.01 1228.12 1289.59C1225.67 1292.13 1206.03 1294.04 1201.02 1296.08C1186.24 1302.11 1170.1 1313.46 1158.71 1324.01C1150.63 1331.51 1130.73 1357.9 1129.85 1367.93C1121.83 1376.42 1112.46 1415.3 1108.09 1427.3C1098.75 1403.42 1106.54 1394.55 1111.7 1372.88Z" fill="#FEFEFE"/>
<path d="M731.035 417.277C747.649 448.561 787.415 486.052 825.584 483.744C811.309 490.791 795.488 498.14 782.138 506.774C801.395 502.77 818.81 497.512 838.502 494.251C920.625 480.653 1002.08 488.041 1076.74 526.18L1077.97 720.783L1078.22 789.878C1078.25 799.868 1077.85 814.979 1078.44 824.688C1024.76 823.673 956.695 853.591 918.405 891.124C882.696 926.115 855.451 984.746 852.703 1035C848.77 1094.54 865.569 1161.91 911.965 1202.54C909.815 1207.34 874.221 1252.47 869.256 1258.88L840.31 1296.2C836.535 1301.06 828.505 1311.93 824.523 1316.09C781.634 1311 738.525 1304.03 695.68 1298.5C678.244 1296.25 655.092 1291.83 638.258 1290.72C638.327 1262.42 637.583 1233.31 637.291 1204.93C600.246 1158.63 564.648 1110.97 527.728 1064.56C520.214 1055.11 511.773 1044.92 505.009 1035.06C496.338 1024.95 491.728 1032.36 487.17 1028.1C483.512 1018.46 483.627 981.138 484.404 969.339C489.154 899.383 505.314 830.284 535.819 766.952C554.052 729.098 583.116 682.576 581.844 639.802C581.205 618.293 578.784 551.063 568.681 535.261C603.182 511.731 642.164 481.95 676.236 457.086L677.312 455.4C682.146 453.797 724.234 422.466 731.035 417.277Z" fill="#FE7575"/>
<path d="M505.009 1035.06L852.703 1035C848.77 1094.54 865.569 1161.91 911.965 1202.54C909.815 1207.34 874.221 1252.47 869.256 1258.88L840.31 1296.2C836.535 1301.06 828.505 1311.93 824.523 1316.09C781.634 1311 738.525 1304.03 695.68 1298.5C678.244 1296.25 655.092 1291.83 638.258 1290.72C638.327 1262.42 637.583 1233.31 637.291 1204.93C600.246 1158.63 564.648 1110.97 527.728 1064.56C520.214 1055.11 511.773 1044.92 505.009 1035.06Z" fill="#FE5757"/>
<path d="M731.035 417.277C747.649 448.561 787.415 486.052 825.584 483.744C811.309 490.791 795.488 498.14 782.138 506.774C764.545 514.019 692.413 565.119 681.693 580.358L677.206 580.541C692.959 560.675 701.189 560.203 700.276 534.019C700.051 527.724 699.179 521.469 697.676 515.352C695.755 507.397 680.716 461.215 676.236 457.086L677.312 455.4C682.146 453.797 724.234 422.466 731.035 417.277Z" fill="#7F2B2B"/>
<path d="M681.693 580.359C674.825 585.593 669.939 594.093 661.401 599.294L665.465 596.572L664.124 594.018C666.142 591.579 675.066 582.385 677.206 580.542L681.693 580.359Z" fill="#FE5757"/>
<path d="M788.093 613.118C797.094 612.999 802.973 616.932 808.76 623.651C819.888 636.571 795.477 649.466 786.718 656.085C777.714 663.011 768.982 670.284 760.542 677.888C739.542 696.73 714.499 728.812 699.23 752.382C691.552 764.467 684.611 777.005 678.445 789.928C672.305 803.075 666.617 821.276 654.792 829.482C644.866 832.44 640.128 829.38 633.616 822.656C632.841 814.825 632.062 807.09 634.871 799.554C644.975 772.439 676.422 719.508 693.321 698.712C712.384 675.251 762.764 627.061 788.093 613.118Z" fill="#FEFEFE"/>
<path d="M846.538 574.907C857.494 571.018 869.525 576.767 873.381 587.735C877.237 598.703 871.451 610.717 860.472 614.539C851.162 617.781 840.85 614.112 835.68 605.718C832.353 600.318 831.645 593.703 833.753 587.721C835.862 581.738 840.56 577.029 846.538 574.907Z" fill="#FEFEFE"/>
<path d="M622.325 864.816C633.328 861.974 644.561 868.551 647.466 879.537C650.371 890.523 643.858 901.794 632.889 904.762C626.711 906.433 620.107 905.147 615.008 901.28C609.909 897.412 606.89 891.4 606.834 885C606.797 880.74 608.077 876.573 610.5 873.069C613.323 868.987 617.52 866.058 622.325 864.816Z" fill="#FEFEFE"/>
<path d="M1318.29 1045.5C1330.31 1046.55 1348.8 1046.06 1361.28 1046.05L1432.99 1046H1664.91C1664.02 1058.56 1659.78 1073.36 1659.33 1082.91C1635.18 1113.41 1609.18 1143.15 1585.32 1173.69C1585.52 1190.74 1586.47 1207.18 1586.82 1224C1560 1224.52 1532.93 1225.76 1506.1 1226.74C1492.13 1227.25 1470.89 1226.56 1457.82 1228.66C1454.43 1229.15 1448.45 1229.37 1444.85 1229.62L1443.05 1203.48C1442.46 1200.26 1438.9 1194.86 1437.31 1190.79C1434.22 1186.09 1429.77 1180.74 1426.11 1176.4C1389.73 1133.28 1354.99 1088.3 1318.29 1045.5Z" fill="#7F2B2B"/>
<path d="M1348.96 478.261C1376.22 474.958 1410.72 439.366 1421.54 416.152L1488.64 464.89C1494.57 469.198 1514.53 483.057 1519.04 487.195L1519.19 487.729C1512.1 505.097 1506.31 532.417 1499.79 550.735C1497.16 558.134 1495.41 568.161 1491.29 574.735C1486.18 573.096 1446.08 543.1 1438.18 537.621C1419.41 524.493 1400.44 511.637 1381.29 499.056C1371.27 492.587 1358.37 485.05 1348.96 478.261Z" fill="#FE5757"/>
<path d="M1337.54 478.41C1341.22 478.325 1345.31 478.137 1348.96 478.261C1358.37 485.05 1371.27 492.587 1381.29 499.056C1400.44 511.637 1419.41 524.493 1438.18 537.621C1446.08 543.1 1486.18 573.096 1491.29 574.735C1495.41 568.161 1497.16 558.134 1499.79 550.735C1506.31 532.417 1512.1 505.097 1519.19 487.729C1523.94 489.687 1575.66 527.53 1581.07 532.503C1581.31 533.25 1581.55 533.997 1581.79 534.745C1567.35 579.455 1563.37 626.41 1574.24 672.404C1576.61 682.437 1579.61 692.435 1582.68 702.488C1579.66 699.475 1563.05 676.729 1559.03 671.679C1544.4 653.677 1528.94 636.36 1512.71 619.784C1479.7 586.031 1442.72 554.381 1405.96 524.747C1390.1 511.353 1372.04 499.731 1356.22 486.421C1346.95 478.62 1344.26 481.837 1337.54 478.41Z" fill="#7F2B2B"/>
<path d="M852.704 1035C855.452 984.747 882.697 926.116 918.406 891.125C956.696 853.592 1024.76 823.674 1078.44 824.689L1082.02 830.018L1081.84 835.047L1080.57 835.483C1066.76 840.144 1049.02 842.307 1034.3 846.415C972.406 863.685 919.256 899.57 889.63 958.079C847.244 1041.79 863.027 1122.04 921.166 1192.57C917.896 1195.9 914.846 1198.85 911.966 1202.54C865.57 1161.91 848.771 1094.54 852.704 1035Z" fill="#FEFEFE"/>
<path d="M1082.01 830.018L1083.07 827.713C1089.14 827.142 1097.57 828.99 1103.97 829.743C1144.65 834.537 1184.72 846.882 1216.59 873.555C1258.59 908.706 1306.93 964.95 1297.57 1023.63C1276.37 923.156 1213.92 860.589 1113.43 840.048C1106 838.529 1087.17 836.824 1081.83 835.047L1082.01 830.018Z" fill="#7F2B2B"/>
<path d="M210.602 1022.96C240.435 1024.26 270.087 1026.77 299.888 1028.53C310.472 1029.16 320.376 1029.88 330.947 1028.86C340.595 1028.99 346.586 1030.98 354.522 1031.28C372.838 1028.51 480.636 1032.86 487.17 1028.1C491.728 1032.36 496.338 1024.95 505.009 1035.06C511.773 1044.92 520.214 1055.11 527.728 1064.56C564.648 1110.97 600.246 1158.63 637.291 1204.93C637.583 1233.31 638.327 1262.42 638.258 1290.72C624.951 1288.35 555.904 1276.88 546.357 1279.02C534.414 1281.7 521.934 1290.72 511.989 1297.73C499.006 1306.89 489.471 1325.97 486.951 1341.35C484.643 1355.43 485.353 1383.3 493.553 1395.19C495.341 1397.79 496.655 1398.5 499.6 1399.32C518.423 1404.61 552.518 1407.83 572.808 1410.91L732.689 1434.84C753.619 1437.99 788.158 1441.96 807.802 1446.29C808.198 1465.1 809.157 1485.72 809.122 1504.28L809.516 1547.24C797.823 1546.59 774.947 1541.1 764.436 1536.07C761.13 1534.49 753.262 1525.72 748.637 1522.93C744.272 1516.03 722.788 1499.19 716.133 1489.2C699.268 1485.45 680.991 1483.29 663.913 1480.22C656.998 1478.97 648.631 1478.51 642.231 1476.41C638.253 1479.48 532.797 1624.09 529.397 1631.7C526.018 1635.7 523.88 1638.63 520.888 1642.88C514.063 1651.67 506.97 1661.9 500.396 1671L475.372 1670.98C461.615 1680.35 445.075 1680 429.268 1679.65C426.013 1679.57 419.39 1679.42 416.502 1680.17C394.257 1681 359.609 1679.23 336.549 1678.89C327.687 1675.37 297.557 1672.44 282.933 1667.21C287.597 1667.23 292.261 1667.18 296.924 1667.06C279.502 1663.15 209.074 1662.33 197.434 1656.61C196.493 1652.86 86.8929 1518.81 75.3859 1505.41C67.8349 1502.87 64.4099 1499.12 64.6489 1490.96L64.6619 1490.1C61.1129 1487.35 62.2069 1485.77 62.2239 1481.34L64.3419 1284.55C64.4539 1270.62 64.7059 1257.3 64.3759 1243.33C64.2489 1237.98 63.0289 1227.23 63.7269 1223.27L66.0749 1217.75C99.2169 1171.7 134.801 1126.31 168.277 1080.42C182.119 1061.45 197.359 1042.25 210.602 1022.96Z" fill="#202B5B"/>
<path d="M63.7269 1223.27L64.9399 1224.58C103.401 1225.51 144.105 1230.69 182.594 1231.28C185.391 1233.15 193.339 1233.05 197.293 1233.18L195.789 1494.54C176.496 1493.49 153.243 1492.64 134.179 1491.8C124.422 1491.36 72.8019 1488.1 65.6389 1489.72L64.6489 1490.96L64.6619 1490.1C61.1129 1487.35 62.2069 1485.77 62.2239 1481.34L64.3419 1284.55C64.4539 1270.62 64.7059 1257.3 64.3759 1243.33C64.2489 1237.98 63.0289 1227.23 63.7269 1223.27Z" fill="#61708F"/>
<path d="M210.603 1022.96C240.436 1024.26 270.088 1026.77 299.889 1028.53C310.473 1029.16 320.376 1029.88 330.948 1028.86C340.596 1028.99 346.587 1030.98 354.523 1031.28C343.493 1045.65 332.586 1060.48 321.923 1075.13C283.663 1127.69 243.938 1179.39 205.853 1232.05C199.234 1233.27 190.588 1231.09 182.595 1231.28C144.106 1230.69 103.402 1225.51 64.9405 1224.58L63.7275 1223.27L66.0755 1217.75C99.2175 1171.7 134.802 1126.31 168.278 1080.42C182.12 1061.45 197.36 1042.25 210.603 1022.96Z" fill="#61708F"/>
<path d="M330.948 1028.86C340.596 1028.99 346.587 1030.98 354.523 1031.28C343.493 1045.65 332.586 1060.48 321.923 1075.13C283.663 1127.69 243.938 1179.39 205.853 1232.05C199.234 1233.27 190.588 1231.09 182.595 1231.28C144.106 1230.69 103.402 1225.51 64.9405 1224.58L63.7275 1223.27L66.0755 1217.75C67.4765 1217.08 68.8915 1216.45 70.3035 1215.81C88.6865 1207.42 186.571 1223.8 197.129 1218.92C199.333 1217.9 331.237 1045.86 339.22 1032.38L338.642 1031.04C335.31 1030.96 333.759 1030.95 330.503 1030.39L330.948 1028.86Z" fill="#FEFEFE"/>
<path d="M529.397 1631.7C525.543 1627.38 500.632 1584.56 496.106 1576.78C468.859 1529.93 439.581 1483.99 414.852 1435.74C409.252 1424.82 391.212 1383.45 396.904 1374.04C410.964 1391.12 424.077 1392 445.337 1392.55C441.553 1404.31 440.534 1421.05 441.361 1433.51C441.393 1433.99 443.092 1439.19 443.485 1441.44L442.103 1442.33L437.741 1441.35L437.501 1442.04C451.153 1453.45 503.981 1457.74 523.5 1460.39L642.231 1476.41C638.253 1479.48 532.797 1624.09 529.397 1631.7Z" fill="#181942"/>
<path d="M182.594 1231.28C190.587 1231.09 199.233 1233.27 205.852 1232.05C206.084 1320.19 208.77 1409.11 208.276 1496.96L309.523 1617.67L304.771 1618.27C301.626 1613.94 286.271 1598.46 281.868 1593.85L227.84 1537.44C220.526 1529.81 204.92 1514.41 199.433 1507.09C160.153 1505.15 120.182 1500.85 80.7474 1499.43C79.5914 1499.39 69.7924 1494.15 68.0024 1493.32L66.9484 1493.94C69.3944 1497.12 72.2304 1500.66 74.4354 1503.96L75.3864 1505.41C67.8354 1502.87 64.4104 1499.12 64.6494 1490.96L65.6394 1489.72C72.8024 1488.1 124.422 1491.36 134.179 1491.8C153.243 1492.64 176.496 1493.49 195.789 1494.54L197.293 1233.18C193.339 1233.05 185.391 1233.15 182.594 1231.28Z" fill="#9CA1B6"/>
<path d="M716.133 1489.2C726.653 1489.82 740.159 1492.59 750.73 1494.41C770.175 1497.81 789.639 1501.1 809.122 1504.28L809.516 1547.24C797.823 1546.59 774.947 1541.1 764.436 1536.07C761.13 1534.49 753.262 1525.72 748.637 1522.93C744.272 1516.03 722.788 1499.19 716.133 1489.2Z" fill="#7F2B2B"/>
<path d="M296.925 1667.06C353.304 1673.37 417.862 1671.04 475.373 1670.98C461.616 1680.35 445.076 1680 429.269 1679.65C426.014 1679.57 419.391 1679.42 416.503 1680.17C394.258 1681 359.61 1679.23 336.55 1678.89C327.688 1675.37 297.558 1672.44 282.934 1667.21C287.598 1667.23 292.262 1667.18 296.925 1667.06Z" fill="#C7B0BD"/>
<path d="M309.523 1617.67C313.288 1621.76 340.845 1653.25 341.948 1656.03L340.88 1656.34C329.346 1645.47 315.946 1630.03 304.771 1618.27L309.523 1617.67Z" fill="#61708F"/>
<path d="M807.564 0H1054.93H1356.76C1543.84 25.2948 1646.91 165.961 1621.88 352.622C1613.69 413.706 1594.67 472.677 1581.07 532.503C1575.66 527.53 1523.94 489.687 1519.19 487.729L1519.04 487.195C1514.53 483.057 1494.57 469.198 1488.64 464.89L1421.54 416.152C1423.8 412.067 1427.14 401.139 1428.96 396.005C1429.8 389.423 1433.74 381.322 1435.09 374.598C1444.49 327.903 1461.18 277 1431.58 233.723C1410.99 203.62 1383.14 185.103 1347.26 178.899C1296.14 170.06 1244.62 173.44 1193.07 174.905C1135.63 175.397 1077.78 174.942 1020.4 174.926L888.158 174.973C839.774 174.999 817.43 170.063 769.924 191.742C678.585 233.424 695.822 328.231 725.165 405.026C726.056 407.359 729.69 415.635 731.036 417.278C724.235 422.467 682.147 453.798 677.313 455.401L676.237 457.087C642.165 481.951 603.183 511.732 568.682 535.262C567.851 529.394 565.157 522.29 563.576 516.448C529.924 392.133 489.447 238.568 576.102 126.285C618.343 71.5513 681.814 28.0575 748.452 9.75424C768.27 4.31102 787.471 2.7032 807.564 0Z" fill="#202B5B"/>
<path d="M1054.92 0H1356.75C1543.83 25.2948 1646.9 165.961 1621.87 352.622C1613.68 413.706 1594.66 472.677 1581.06 532.503C1575.65 527.53 1523.93 489.687 1519.18 487.729L1519.03 487.195C1522.32 480.873 1528.54 459.073 1530.86 451.123C1540.51 418.077 1552.63 380.63 1557.69 346.742C1567.81 278.944 1547.59 205.909 1506.13 151.552C1487.24 126.781 1437.04 80.914 1408.53 67.0532C1325.24 26.5506 1218.44 15.3885 1126.82 5.39085C1105.08 3.01821 1076.01 3.18451 1055.86 0.150438L1054.92 0Z" fill="#181942"/>
<path d="M656.136 388.139C680.645 354.947 693.639 341.3 693.13 299.255C692.86 277.022 703.084 244.177 714.223 224.988C746.008 170.23 813.066 164.307 870.102 166.556C923.405 168.735 977.185 168.115 1030.65 167.633L1212.44 165.839C1239.11 165.398 1265.8 165.129 1292.48 165.031C1323.34 164.854 1346.39 162.963 1376.49 173.224C1475.03 206.813 1458.25 318.623 1430.72 396.116L1428.95 396.005C1429.79 389.423 1433.73 381.322 1435.08 374.598C1444.48 327.903 1461.17 277 1431.57 233.723C1410.98 203.62 1383.13 185.103 1347.25 178.899C1296.13 170.06 1244.61 173.44 1193.06 174.905C1135.62 175.397 1077.77 174.942 1020.39 174.926L888.157 174.973C839.773 174.999 817.429 170.063 769.923 191.742C678.584 233.424 695.821 328.231 725.164 405.026C726.055 407.359 729.689 415.635 731.035 417.278C724.234 422.467 682.146 453.798 677.312 455.401C669.877 436.279 663.648 405.072 656.136 388.139Z" fill="#181942"/>
<path d="M740.881 44.3635C749.312 43.1119 770.83 43.4593 778.29 47.2719C777.407 49.9654 765.159 52.0876 761.801 53.0294C700.631 70.1866 665.722 87.5756 626.085 137.386C585.965 187.804 575.663 210.217 564.013 272.697C562.992 283.438 562.728 296.388 562.27 307.34C542.08 224.496 587.107 144.65 648.118 91.6064C672.233 70.6395 708.627 46.8932 740.881 44.3635Z" fill="#FEFEFE"/>
<path d="M805.051 30.0791C814.064 29.8791 849.904 28.84 828.832 46.4293C820.381 46.5818 799.623 49.2581 799.45 37.5154C801.343 33.4549 801.669 33.0165 805.051 30.0791Z" fill="#FEFEFE"/>
<path d="M1393.22 1527.81C1431.95 1528.61 1470.7 1529.02 1509.44 1529.04C1520.38 1529.08 1558.87 1528.56 1567.2 1529.81C1595.14 1529.54 1632.12 1529.12 1659.7 1530.26C1665.91 1531.88 1679.66 1531.61 1686.71 1531.65C1691.21 1537.4 1706.11 1557.18 1710.38 1560.55C1721.7 1559.28 1734.31 1561.88 1745.72 1561.84C1791.92 1561.67 1837.8 1565.26 1884.04 1563.77C1893.13 1563.47 1919.46 1563.85 1926.84 1562.2L1956.32 1561.99L1965.52 1551.73C1968.72 1547.77 1978.28 1537.2 1981.96 1534.17L2136.77 1535.55L2156.17 1557.73C2147.12 1561.99 2111.69 1579.63 2103.98 1580.39C2089.48 1581.82 2061.79 1581.13 2046.3 1581.28C2004.52 1582.09 1962.74 1582.64 1920.96 1582.91L1667.65 1585.54C1627.45 1585.86 1582.1 1587.17 1542.23 1586.16C1526.61 1587.56 1494.84 1587.16 1477.8 1587.23C1452.32 1587.34 1417.71 1589.07 1393.16 1587.77C1395.84 1579.62 1390.69 1538.7 1393.22 1527.81Z" fill="#C7B0BD"/>
<path d="M1393.22 1527.81C1431.95 1528.61 1470.7 1529.02 1509.44 1529.04C1520.38 1529.08 1558.87 1528.56 1567.2 1529.81C1558.17 1530.87 1542.24 1530.19 1532.49 1530.19C1533.88 1538.47 1534.79 1543.4 1537.47 1551.21L1537.72 1551.9C1509.89 1562.99 1474.14 1576.3 1445.75 1585.92L1511.25 1585.66C1516.93 1585.65 1537.96 1585.32 1542.23 1586.16C1526.61 1587.56 1494.84 1587.16 1477.8 1587.23C1452.32 1587.34 1417.71 1589.07 1393.16 1587.77C1395.84 1579.62 1390.69 1538.7 1393.22 1527.81Z" fill="#AA8398"/>
<path d="M1965.52 1551.73C1973.05 1555 2030.26 1553.81 2043.97 1555.82C2043.23 1556.1 2017.58 1559.11 2016.05 1559.25C1996.68 1561.05 1947.1 1568.47 1930.86 1569.52C1900.85 1571.46 1735.65 1569.9 1719.35 1563.13L1720.67 1562.81C1714.31 1559.81 1713.72 1561.64 1710.38 1560.55C1721.69 1559.28 1734.31 1561.88 1745.72 1561.84C1791.92 1561.67 1837.8 1565.26 1884.04 1563.77C1893.13 1563.47 1919.46 1563.85 1926.84 1562.2L1956.32 1561.99L1965.52 1551.73Z" fill="#AA8398"/>
<path d="M520.888 1642.88L653.782 1646.47C678.179 1647.17 704.169 1648.93 728.406 1649.01C737.753 1658.12 756.04 1677.03 765.353 1684.21L765.374 1685.43C752.906 1686.99 706.303 1684.96 690.868 1684.68C639.167 1684.27 587.471 1683.45 535.782 1682.24C504.699 1682.07 473.618 1681.66 442.54 1681.02C438.896 1680.93 418.611 1680.74 416.502 1680.17C419.39 1679.42 426.013 1679.57 429.268 1679.65C445.075 1680 461.615 1680.35 475.372 1670.98L500.396 1671C506.97 1661.9 514.063 1651.67 520.888 1642.88Z" fill="#AA8398"/>
<path d="M748.637 1522.93C753.262 1525.72 761.13 1534.49 764.436 1536.07C774.947 1541.1 797.823 1546.59 809.516 1547.24C809.596 1550.17 810.15 1553.7 808.54 1555.88C764.494 1561.73 717.092 1557.19 672.443 1555.92C648.821 1555.24 621.841 1555.18 598.718 1553.63C598.749 1553.58 598.766 1553.52 598.812 1553.47C601.833 1550.8 733.354 1525.12 748.637 1522.93Z" fill="#AA8398"/>
<path d="M40.7817 1669.94C56.1447 1667.36 85.4207 1665.8 102.297 1664.48C132.775 1662.08 167.238 1658.07 197.434 1656.61C209.074 1662.33 279.502 1663.15 296.924 1667.06C292.261 1667.18 287.597 1667.23 282.933 1667.21C297.557 1672.44 327.687 1675.37 336.549 1678.89C312.467 1678.97 289.083 1678.06 265.046 1677.71L67.3397 1674.87C58.5747 1673.49 45.5677 1673.75 36.0217 1673.22C28.5737 1673.27 14.6377 1673.53 7.7207 1672.17C18.0067 1671.77 30.4937 1670.85 40.7817 1669.94Z" fill="#AA8398"/>
<path d="M7.7207 1672.17C18.0067 1671.77 30.4937 1670.85 40.7817 1669.94C44.7467 1670.01 47.8337 1669.72 51.4697 1671.21C49.7527 1673.01 45.0497 1673.13 42.4317 1673.19C40.2957 1673.23 38.1587 1673.24 36.0217 1673.22C28.5737 1673.27 14.6377 1673.53 7.7207 1672.17Z" fill="#C7B0BD"/>
<path d="M931.415 1749.43C936.785 1752.33 950.465 1768.39 954.885 1773.57C894.185 1771.16 828.919 1775.05 768.064 1772.64C806.616 1765.62 850.107 1762.02 889.13 1755.46C900.905 1753.48 921.215 1751.97 931.415 1749.43Z" fill="#C7B0BD"/>
<path d="M67.34 1674.87C56.84 1675.54 9.032 1675.26 0 1672.63C2.647 1671.78 4.927 1672.08 7.721 1672.17C14.638 1673.53 28.574 1673.27 36.022 1673.22C45.568 1673.75 58.575 1673.49 67.34 1674.87Z" fill="#C7B0BD" fill-opacity="0.584314"/>
</svg>
