<svg width="288" height="284" viewBox="0 0 288 284" fill="none" xmlns="http://www.w3.org/2000/svg">
<path d="M169.34 14.1304C171.807 15.8107 196.061 47.8152 196.403 49.3879L196.301 49.8412C193.809 51.3217 189.606 52.6699 186.726 53.7947C177.162 57.5297 167.49 61.1387 157.898 64.8032L127.185 76.5282C122.823 78.1842 115.334 81.4872 110.848 82.2832C109.353 81.6212 87.3891 81.8549 85.4081 82.3159C83.3434 82.2034 76.1584 82.2567 75.1934 81.4704C75.4096 80.7487 78.7744 78.6077 79.6176 77.9902L102.091 61.7002L148.63 28.4349C153.544 24.9628 163.76 17.0654 168.642 14.4713C168.871 14.3507 169.104 14.2371 169.34 14.1304Z" fill="white"/>
<path d="M259.512 141.906C259.899 142.057 259.837 142.076 260.137 142.43C259.787 155.008 260.277 167.771 260.257 180.355C260.127 181.396 260.099 183.888 259.364 184.624C255.969 188.025 250.819 192.336 246.802 194.749C244.517 196.121 238.295 195.416 235.497 195.565C227.187 196.01 220.341 195.132 213.769 189.626C213.425 189.312 213.096 188.982 212.783 188.636C208.923 184.41 206.452 179.28 206.733 173.444C206.939 168.462 208.817 163.695 212.063 159.91C222.122 148.36 233.761 153.659 246.337 151.864C248.317 151.581 257.332 143.896 259.512 141.906ZM231.417 184.646C237.296 183.045 240.813 177.034 239.327 171.125C237.841 165.215 231.899 161.582 225.962 162.953C222.017 163.864 218.873 166.834 217.739 170.721C216.606 174.607 217.661 178.803 220.498 181.691C223.335 184.579 227.51 185.709 231.417 184.646Z" fill="white"/>
<path d="M141.57 82.4103C139.672 82.3978 133.426 82.82 132.162 82.411L132.321 82.0593C133.427 81.3423 141 79.059 142.882 78.3478C164.714 70.333 186.613 62.5033 208.577 54.8593C209.52 54.5415 210.749 54.0995 211.722 54.105C213.896 54.8858 215.775 61.6685 216.586 63.9198C218.005 67.9235 219.49 71.9035 221.041 75.8583C221.573 77.2215 222.398 79.6833 223.169 80.7668C222.555 81.3233 222.476 81.6193 221.653 81.7223C213.184 82.7815 143.529 80.9758 141.57 82.4103Z" fill="white"/>
<path d="M228.4 72.3171C235.103 72.9621 243.856 71.4876 250.662 72.6636C253.967 73.2341 256.357 75.5613 258.102 78.2803C258.84 79.4316 259.66 81.1963 259.78 82.6031C260.375 89.5723 259.98 96.7686 260.005 103.761L260.002 123.228C260.01 126.179 260.177 130.028 259.827 132.977C259.69 134.143 258.217 134.936 257.262 135.529C256.2 136.141 255.085 136.737 254.007 137.329C253.682 123.939 254.15 110.478 253.875 97.0828C253.802 93.4651 254.162 85.7958 252.667 82.8678C249.186 76.0438 237.018 79.6936 231.025 78.2671C230.34 78.0718 229.206 77.1853 229.034 76.5081C228.688 75.1381 227.89 73.6638 228.4 72.3171Z" fill="white"/>
<path d="M259.342 193.472C259.62 193.593 259.71 193.577 259.875 193.857C260.412 194.767 260.245 229.398 259.622 231.952C258.942 234.743 256.697 235.962 254.407 237.328C253.57 235.971 253.96 218.648 253.852 215.123C253.69 209.747 253.532 202.616 254.047 197.215C254.187 195.768 258.172 194.044 259.342 193.472Z" fill="white"/>
<path d="M223.17 80.7666C223.239 81.8964 223.369 81.5396 222.853 82.3114C220.983 82.8461 205.662 82.5176 202.743 82.5189L141.57 82.4101C143.53 80.9756 213.185 82.7814 221.653 81.7221C222.476 81.6191 222.555 81.3231 223.17 80.7666Z" fill="white" fill-opacity="0.968627"/>
<path d="M85.4082 82.3159C87.3892 81.8549 109.353 81.6211 110.848 82.2831C108.788 82.7061 88.1902 82.6259 85.4082 82.3159Z" fill="white"/>
<path d="M35.2041 74.0439C41.6509 70.8627 66.0448 72.493 74.6436 72.292C73.1438 73.5407 67.344 78.0847 65.71 78.3232C58.9471 79.3098 51.4127 77.8871 44.6709 79.1748C41.6946 79.7435 41.1326 83.3827 42.9043 85.4541L43.4639 85.6484C46.5718 87.1236 68.166 86.414 72.8467 86.4082L115.915 86.4863L198.912 86.6553L224.891 86.4746C227.674 86.4611 230.472 86.4163 233.254 86.4668C238.718 86.566 243.051 86.1729 246.343 91.2617C248.452 98.2771 246.804 114.23 247.248 122.378C247.467 126.392 247.651 140.528 246.814 143.823C243.932 147.147 220.757 138.223 206.438 154.196C201.145 160.042 198.409 167.761 198.838 175.635C199.276 182.846 202.822 190.918 208.305 195.717C217.373 203.93 228.716 203.407 240.163 203.016C241.456 202.971 245.263 202.77 246.274 203.29C247.786 204.068 247.313 212.134 247.325 213.786L247.311 231.562C247.294 236.137 248.508 243.313 245.433 246.98C243.663 249.09 240.568 250.068 237.906 250.155C229.171 250.425 220.41 250.127 211.676 250.17L139.427 250.025L74.4141 250.18L51.7256 250.362C45.4558 250.387 35.578 251.752 31.4385 246.283C30.2939 244.608 29.8675 242.826 29.8252 240.817C29.6562 232.75 30.0025 224.675 29.9668 216.59L29.7939 153.583L29.8203 109.123C29.8128 100.992 29.2661 89.7239 30.3516 81.916C31.3413 78.9809 32.1867 75.5331 35.2041 74.0439ZM95.7998 111C94.0947 115.266 92.3631 119.378 91.1611 123.784C112.451 124.224 138.833 119.424 148.229 140.347L95.5615 140.326C93.3345 145.501 92.5261 148.105 91 153.394C109.788 153.441 129.987 153.118 148.632 153.58C138.007 174.033 114.875 169.954 93.4375 170.088L93.5371 179.83C98.4624 184.543 144.536 230.357 146.644 231L169.404 230.964C160.309 222.7 151.311 213.397 142.513 204.864C135.238 197.808 127.26 190.553 120.366 183.287C144.948 181.189 162.777 178.062 167.198 153.476H182.657C184.651 148.803 185.438 143.985 187 140.352L166.794 140.376C165.754 133.84 164.432 129.239 159.269 124.06L182.848 123.892C184.622 119.177 185.444 115.462 186.957 111.029L95.7998 111Z" fill="white"/>
</svg>
