<svg width="288" height="284" viewBox="0 0 288 284" fill="none" xmlns="http://www.w3.org/2000/svg">
<path d="M30.3509 81.9159C31.3407 78.9806 32.1864 75.5326 35.2042 74.0436C41.6509 70.8624 66.0442 72.4931 74.6429 72.2921C73.1432 73.5409 67.3442 78.0844 65.7102 78.3229C58.9472 79.3096 51.4129 77.8871 44.6709 79.1749C41.6944 79.7434 41.1322 83.3829 42.9039 85.4544L43.4639 85.6481C46.5719 87.1234 68.1672 86.4144 72.8469 86.4086L115.914 86.4869L198.912 86.6551L224.89 86.4749C227.674 86.4614 230.472 86.4169 233.254 86.4674C238.718 86.5666 243.05 86.1731 246.342 91.2621C248.452 98.2776 246.803 114.23 247.247 122.378C247.467 126.392 247.65 140.528 246.814 143.823C243.931 147.147 220.756 138.223 206.438 154.197C201.145 160.042 198.408 167.761 198.837 175.635C199.275 182.846 202.822 190.918 208.304 195.717C217.373 203.93 228.716 203.407 240.163 203.015C241.455 202.971 245.263 202.77 246.274 203.29C247.786 204.068 247.312 212.135 247.325 213.787L247.31 231.562C247.294 236.137 248.508 243.313 245.432 246.981C243.663 249.09 240.568 250.068 237.906 250.155C229.171 250.425 220.41 250.128 211.676 250.17L139.427 250.025L74.4139 250.18L51.7249 250.363C45.4552 250.388 35.5779 251.753 31.4384 246.284C30.2937 244.608 29.8677 242.826 29.8254 240.817C29.6564 232.75 30.0022 224.675 29.9664 216.59L29.7942 153.583L29.8204 109.124C29.8129 100.992 29.2654 89.7239 30.3509 81.9159Z" fill="#EEEEED"/>
<path d="M169.34 14.1304C171.807 15.8107 196.061 47.8152 196.403 49.3879L196.301 49.8412C193.809 51.3217 189.606 52.6699 186.726 53.7947C177.162 57.5297 167.49 61.1387 157.898 64.8032L127.185 76.5282C122.823 78.1842 115.334 81.4872 110.848 82.2832C109.353 81.6212 87.3891 81.8549 85.4081 82.3159C83.3434 82.2034 76.1584 82.2567 75.1934 81.4704C75.4096 80.7487 78.7744 78.6077 79.6176 77.9902L102.091 61.7002L148.63 28.4349C153.544 24.9628 163.76 17.0654 168.642 14.4713C168.871 14.3507 169.104 14.2371 169.34 14.1304Z" fill="#EEEEED"/>
<path d="M259.512 141.906C259.899 142.057 259.837 142.076 260.137 142.43C259.787 155.008 260.277 167.771 260.257 180.355C260.127 181.396 260.099 183.888 259.364 184.624C255.969 188.025 250.819 192.336 246.802 194.749C244.517 196.121 238.295 195.416 235.497 195.565C227.187 196.01 220.341 195.132 213.769 189.626C213.425 189.312 213.096 188.982 212.783 188.636C208.923 184.41 206.452 179.28 206.733 173.444C206.939 168.462 208.817 163.695 212.063 159.91C222.122 148.36 233.761 153.659 246.337 151.864C248.317 151.581 257.332 143.896 259.512 141.906ZM231.417 184.646C237.296 183.045 240.813 177.034 239.327 171.125C237.841 165.215 231.899 161.582 225.962 162.953C222.017 163.864 218.873 166.834 217.739 170.721C216.606 174.607 217.661 178.803 220.498 181.691C223.335 184.579 227.51 185.709 231.417 184.646Z" fill="#EEEEED"/>
<path d="M141.57 82.4103C139.672 82.3978 133.426 82.82 132.162 82.411L132.321 82.0593C133.427 81.3423 141 79.059 142.882 78.3478C164.714 70.333 186.613 62.5033 208.577 54.8593C209.52 54.5415 210.749 54.0995 211.722 54.105C213.896 54.8858 215.775 61.6685 216.586 63.9198C218.005 67.9235 219.49 71.9035 221.041 75.8583C221.573 77.2215 222.398 79.6833 223.169 80.7668C222.555 81.3233 222.476 81.6193 221.653 81.7223C213.184 82.7815 143.529 80.9758 141.57 82.4103Z" fill="#EEEEED"/>
<path d="M228.4 72.3171C235.103 72.9621 243.856 71.4876 250.662 72.6636C253.967 73.2341 256.357 75.5613 258.102 78.2803C258.84 79.4316 259.66 81.1963 259.78 82.6031C260.375 89.5723 259.98 96.7686 260.005 103.761L260.002 123.228C260.01 126.179 260.177 130.028 259.827 132.977C259.69 134.143 258.217 134.936 257.262 135.529C256.2 136.141 255.085 136.737 254.007 137.329C253.682 123.939 254.15 110.478 253.875 97.0828C253.802 93.4651 254.162 85.7958 252.667 82.8678C249.186 76.0438 237.018 79.6936 231.025 78.2671C230.34 78.0718 229.206 77.1853 229.034 76.5081C228.688 75.1381 227.89 73.6638 228.4 72.3171Z" fill="#EEEEED"/>
<path d="M259.342 193.472C259.62 193.593 259.71 193.577 259.875 193.857C260.412 194.767 260.245 229.398 259.622 231.952C258.942 234.743 256.697 235.962 254.407 237.328C253.57 235.971 253.96 218.648 253.852 215.123C253.69 209.747 253.532 202.616 254.047 197.215C254.187 195.768 258.172 194.044 259.342 193.472Z" fill="#EEEEED"/>
<path d="M223.17 80.7666C223.239 81.8964 223.369 81.5396 222.853 82.3114C220.983 82.8461 205.662 82.5176 202.743 82.5189L141.57 82.4101C143.53 80.9756 213.185 82.7814 221.653 81.7221C222.476 81.6191 222.555 81.3231 223.17 80.7666Z" fill="#EEEEED" fill-opacity="0.968627"/>
<path d="M85.4082 82.3159C87.3892 81.8549 109.353 81.6211 110.848 82.2831C108.788 82.7061 88.1902 82.6259 85.4082 82.3159Z" fill="#EEEEED" fill-opacity="0.960784"/>
</svg>
