<svg width="24" height="25" viewBox="0 0 24 25" fill="none" xmlns="http://www.w3.org/2000/svg">
<g clip-path="url(#clip0_2965_2596)">
<path d="M11.5038 0.216225C12.7117 0.106002 13.1222 1.01728 14.1025 1.32225C14.6715 1.49929 16.7227 1.1048 17.0827 1.3539C17.1322 1.55215 16.5965 2.00356 16.4523 2.13852C15.5657 2.96845 14.5818 3.87617 13.4931 4.42397C12.632 4.85725 12.1247 3.8226 11.3565 3.49799C10.3983 3.09916 9.51871 4.39476 8.71216 4.59087C8.20322 4.69028 7.79352 4.50127 7.39566 4.22169C6.27754 3.43237 4.58385 1.77976 7.23689 1.84354C8.31066 1.86935 9.17702 1.85149 9.94002 1.02272C10.3294 0.599843 10.9274 0.312298 11.5038 0.216225Z" fill="white"/>
<path d="M16.929 2.70117L16.9584 2.71922C16.969 2.82179 16.4122 3.88066 16.3118 4.09004C15.8637 5.02478 15.4852 5.91463 15.2716 6.93378C15.1742 7.31151 14.8823 7.53826 14.5571 7.68562C12.7786 8.49142 10.7406 8.73314 8.92491 7.90184C7.6858 7.33449 7.91057 6.93117 7.39226 5.89202C7.24351 5.5681 7.03009 5.27147 6.8218 4.98349C6.75658 4.89335 6.69021 4.81159 6.64355 4.70975C6.81653 4.59955 8.16705 5.4164 8.66757 5.37299C9.64366 5.28831 10.1128 4.39979 10.9731 4.14962C11.3568 4.25421 11.6224 4.60947 11.9278 4.87107C13.3605 6.0982 14.9938 4.16113 16.1263 3.37637C16.3433 3.22597 16.7755 2.88993 16.929 2.70117Z" fill="white"/>
<path d="M18.2475 5.68391C18.3493 5.67644 18.4515 5.67413 18.5535 5.67693C19.1999 5.69064 20.7695 5.84521 20.7961 6.7636C20.7991 7.0889 20.511 7.15924 20.247 7.12124C19.6008 7.02823 19.0013 6.93697 18.3499 6.89101C18.9486 7.34354 20.0265 7.8238 20.1625 8.65037C20.1484 8.96792 20.0513 8.99645 19.7754 9.10213C19.7155 9.09169 19.4708 9.04613 19.4248 9.02041C18.9289 8.74324 18.472 8.35106 17.9897 8.05007C17.3938 7.67815 16.7747 7.35689 16.2095 6.94075C16.1016 6.86126 16.049 6.70498 15.999 6.581C16.0269 6.50086 16.0902 6.34059 16.1456 6.28466C16.6005 5.82559 17.6525 5.72969 18.2475 5.68391Z" fill="white"/>
<path d="M16.6621 8C16.9512 8.08318 17.3021 8.27584 17.5703 8.4248C19.358 9.41766 20.9217 10.9059 22.0771 12.5791C23.1738 14.1579 23.7428 15.8236 23.7793 17.7451C23.8223 20.0122 23.2168 21.8928 21.2246 23.1641C19.3007 24.3916 16.9588 24.6053 14.7344 24.7842C13.9144 24.8101 13.0949 24.8271 12.2734 24.8164C11.3219 24.8038 10.2915 24.8451 9.34766 24.7412C8.66989 24.6667 7.9071 24.6053 7.24414 24.4727C4.96671 24.063 2.63143 23.1968 1.60059 20.9424C0.759739 19.1033 0.856175 16.7352 1.5498 14.8574C2.40562 12.5411 4.22601 10.4527 6.20996 9.01562C6.64272 8.70651 7.16871 8.33731 7.64746 8.10938C8.30947 8.43517 8.77978 8.76512 9.51074 9.02539C11.357 9.6827 13.2825 9.47242 15.0781 8.75879C15.6398 8.53555 16.123 8.25748 16.6621 8ZM9.30469 12.5049L8.95996 13.6621H10.8936C11.4502 13.6621 11.8994 13.7529 12.2412 13.9336C12.5878 14.1094 12.8418 14.3555 13.0029 14.6729C13.0734 14.8094 13.1273 14.9561 13.167 15.1123H9.28223L8.94531 16.2695H13.1855C13.1429 16.4455 13.0777 16.6117 12.9883 16.7676C12.8174 17.0654 12.5615 17.3028 12.2197 17.4785C11.8828 17.6494 11.4551 17.7344 10.9375 17.7344H9.15039L9.1582 18.6426L13.0322 23.1689H14.6953V23.0811L11.0918 18.8916C11.9706 18.8916 12.669 18.7578 13.1865 18.4893C13.7089 18.2207 14.082 17.8515 14.3066 17.3828C14.4712 17.0431 14.5765 16.672 14.623 16.2695H15.7422L16.0791 15.1123H14.6035C14.5424 14.6989 14.4223 14.3303 14.2412 14.0068C14.1729 13.8848 14.0958 13.7695 14.0098 13.6621H15.7422L16.0791 12.5049H9.30469Z" fill="white"/>
</g>
<defs>
<clipPath id="clip0_2965_2596">
<rect width="23.913" height="24.9406" fill="white"/>
</clipPath>
</defs>
</svg>
