<svg width="196" height="81" viewBox="0 0 196 81" fill="none" xmlns="http://www.w3.org/2000/svg">
<path d="M41.5498 72.3149C65.8087 69.0634 90.2897 67.9592 114.729 69.0151C123.58 69.4488 132.418 70.1325 141.233 71.0649C144.6 71.4255 147.952 71.9236 151.314 72.3002C153.499 72.5212 155.691 72.6419 157.865 72.9731C167.412 74.427 176.966 76.1322 186.353 78.4672C187.635 78.7864 189.231 79.0939 190.471 79.5121L191.098 79.6899C192.538 80.0742 193.833 80.2875 195.231 80.9907C193.658 80.8691 192.09 80.7544 190.515 80.8061L189.839 80.8393C186.293 81.0952 180.589 80.9652 176.944 80.9721L153.876 80.9946L82.2861 81.0004L26.6689 80.9907C20.2819 81.0072 13.895 80.9624 7.50879 80.8578C6.15646 80.8344 2.33925 80.9763 1.41504 80.8744C1.81172 80.5498 4.96725 80.8046 5.73242 80.2875L5.73047 80.2866C4.96487 80.8034 1.81053 80.5498 1.41406 80.8744C0.959506 80.946 0.378653 81.0901 0 80.8617L0.114258 80.6733C1.18146 80.1931 3.9635 79.5339 5.1748 79.2807H5.17773C8.7464 78.1389 13.8679 77.0419 17.5664 76.2748C24.0546 74.9018 30.5813 73.7298 37.1367 72.7602C38.6554 72.5498 40.0622 72.5029 41.5498 72.3149ZM6.13867 79.311C5.93154 79.473 5.36334 79.6354 5.09082 79.726L5.5 79.8451L5.32715 80.2055H5.32812L5.50098 79.8451L5.0918 79.726C5.36466 79.6352 5.93511 79.4742 6.1416 79.3119L6.13867 79.311ZM60.8174 0.000418481C62.9184 -0.033155 64.9915 1.95851 65.2109 4.13225C65.6618 8.46782 65.3155 12.9596 65.1816 17.3158C65.122 19.2585 65.1536 21.3369 64.9346 23.2494C66.2323 23.1645 68.3047 23.289 69.708 23.2963L79.6279 23.3041L112.811 23.3071C118.436 23.3091 125.71 23.5222 131.191 23.2153C131.323 18.9352 130.428 5.39319 131.945 2.34612C132.379 1.47813 133.106 0.536291 134.043 0.239676C135.744 -0.298586 144.457 0.327515 146.451 0.684012C147.151 0.80895 147.875 1.02801 148.492 1.3969C151.133 2.97436 151.751 9.79921 152.441 12.5043L152.322 12.8715L152.508 14.1264C152.922 17.057 153.211 20.0058 153.374 22.9633C156.147 23.3813 162.276 24.7924 162.182 28.6049C161.925 38.9655 165.631 44.3349 153.421 46.727C152.911 51.5266 152.696 61.3361 149.318 64.8324C147.607 66.6034 138.165 67.1709 135.584 66.9428C130.606 66.5029 130.524 60.0709 130.567 56.0073C130.595 53.2795 130.663 50.5521 130.771 47.8266C130.851 45.9872 131.027 43.7583 131.001 41.9643C117.346 41.7355 103.356 42.0706 89.6689 42.1293L74.0771 42.1625C71.3325 42.1635 67.6488 42.0553 64.96 42.2651C64.8866 46.5363 65.3195 50.9624 65.3262 55.2387C65.4053 58.9427 65.9005 63.0056 63.1289 65.8901C61.1935 67.9043 58.1175 67.0962 55.6631 67.1645C41.0512 67.5723 45.1531 55.9479 42.7539 46.4184C39.8989 46.0042 33.5353 44.8125 33.3633 41.0405C33.2493 38.5444 32.7972 29.8377 33.5771 27.8119L33.6357 27.6528C33.7764 27.2992 33.9437 27.0624 34.1631 26.7182C34.209 26.8498 34.2473 26.9775 34.2715 27.102L34.2256 26.9135C34.2074 26.8495 34.1871 26.7841 34.1641 26.7182C35.6589 24.0703 40.3342 23.1065 42.9336 22.4907C42.8677 19.6211 43.2783 16.2898 43.4893 13.4848C43.7853 9.54671 44.486 1.44805 49.3555 0.549247C52.4557 -0.0228644 57.5123 0.0532476 60.8174 0.000418481ZM34.1201 27.9955C34.0827 28.0534 34.0383 28.1106 33.9873 28.1684L33.9883 28.1694C34.0393 28.1115 34.0827 28.0534 34.1201 27.9955ZM34.2471 27.7338C34.2568 27.7043 34.2645 27.6746 34.2715 27.6449C34.2577 27.7038 34.2389 27.7624 34.2139 27.8207L34.2471 27.7338Z" fill="white"/>
</svg>
