<svg width="509" height="290" viewBox="0 0 509 290" fill="none" xmlns="http://www.w3.org/2000/svg">
<path d="M471 0C491.987 0 509 17.0132 509 38V108.006C508.834 108.004 508.667 108 508.5 108C488.342 108 472 124.342 472 144.5C472 164.658 488.342 181 508.5 181C508.667 181 508.834 180.995 509 180.993V252C509 272.987 491.987 290 471 290H38C17.0132 290 0 272.987 0 252V180.993C19.9279 180.726 36 164.491 36 144.5C36 124.509 19.9279 108.273 0 108.006V38C1.67518e-06 17.0132 17.0132 0 38 0H471ZM89 45C77.9543 45 69 53.9543 69 65V224L69.0068 224.517C69.2808 235.324 78.127 244 89 244H421L421.517 243.993C432.324 243.719 441 234.873 441 224V65C441 54.127 432.324 45.2808 421.517 45.0068L421 45H89ZM417 220H93V69H417V220Z" fill="white"/>
</svg>
