<svg width="206" height="207" viewBox="0 0 206 207" fill="none" xmlns="http://www.w3.org/2000/svg">
<path d="M102.022 0.00474737C158.888 -0.535617 205.433 45.1223 205.995 101.999C206.559 158.877 160.927 205.447 104.061 206.033C47.1628 206.619 0.568398 160.948 0.0051481 104.039C-0.557823 47.1296 45.1232 0.545499 102.022 0.00474737ZM86.9104 85.8641C86.0094 86.4961 84.865 87.3505 83.9534 87.9217L83.93 176.26C94.4432 176.263 105.315 176.393 115.793 176.222L115.8 172.401L115.799 120.59L115.787 104.04C115.784 100.977 115.713 97.6644 115.804 94.6327C114.231 95.7123 112.669 96.8088 111.119 97.9208C107.967 100.154 105.501 102.052 101.323 101.319C96.9638 100.555 95.2328 97.5873 92.9387 94.2733L89.2708 88.9608C88.8359 88.3277 87.4012 86.0473 86.9104 85.8641ZM53.0569 109.582C51.5964 110.597 49.8908 111.699 48.4846 112.762C44.5034 115.767 41.3595 116.854 36.5413 114.713L36.5325 175.956L36.595 176.159C37.1539 176.392 65.165 176.289 68.1028 176.26L68.0882 123.706L68.0872 107.428C68.0871 104.999 68.2 101.63 68.0755 99.3124L67.9114 99.2118L53.0569 109.582ZM146.589 73.0585C142.076 76.1267 136.314 80.1595 131.953 83.4276C131.819 88.0909 131.909 93.1482 131.909 97.8329L131.91 123.284V158.214C131.912 164.198 131.836 170.317 131.921 176.284L151.507 176.308L163.481 176.287L163.429 77.868C159.248 81.5923 153.528 81.5104 149.678 77.2997C149.117 76.6869 146.956 73.2387 146.589 73.0585ZM171.812 35.7801L145.728 37.246C142.457 37.4346 136.903 37.5581 133.735 37.9676C136.221 41.4528 139.227 45.6749 141.536 49.2489C130.078 57.6172 117.913 66.0261 106.275 74.2128L97.7034 61.8583C96.1535 59.6207 94.3251 57.1136 92.8899 54.8544L33.805 95.745C35.596 98.5743 37.9009 101.73 39.8382 104.511C40.2266 105.078 40.6872 105.719 41.0452 106.295C50.4613 99.5418 60.5235 92.7889 70.0842 86.1805L82.9973 77.2557C85.0644 75.8267 87.5714 73.9965 89.6546 72.6717C93.9347 79.1488 98.6958 85.5231 103.015 91.9764L133.985 70.1737L143.817 63.2567C145.337 62.1869 147.357 60.6782 148.894 59.7108C151.234 63.385 154.234 67.4933 156.736 71.1005C161.005 61.0638 165.621 51.1412 169.942 41.1239C170.231 40.4532 172.152 36.3311 172.198 35.8485L172.052 35.7362L171.812 35.7801Z" fill="white"/>
</svg>
