<svg width="146" height="132" viewBox="0 0 146 132" fill="none" xmlns="http://www.w3.org/2000/svg">
<path d="M48.9914 75.0574C56.3371 74.7965 63.6916 74.948 71.0205 75.5109C74.5008 75.7629 77.8664 75.9727 81.2959 76.6631C80.8264 87.3272 81.5324 98.3984 81.2324 109.091C81.0205 116.642 82.3945 122.362 88.4447 127.331C84.3135 128.697 82.1332 130.043 77.3346 130.71C71.8129 131.477 66.3769 131.26 60.8187 131.262C53.6594 131.305 46.4998 131.273 39.341 131.165C30.4119 130.596 21.9017 127.173 15.0652 121.401C6.31365 114.014 0.911311 103.41 0.0810373 91.9881C-0.497283 84.6416 2.00584 83.8133 8.03826 81.7061C21.5025 77.0025 34.9039 75.8578 48.9914 75.0574Z" fill="white"/>
<path d="M53.9423 0.0859592C71.1089 -1.17986 86.0632 11.6832 87.3779 28.8463C88.6923 46.0092 75.8716 61 58.7125 62.3631C41.4843 63.7317 26.4205 50.8483 25.1005 33.6164C23.7806 16.3846 36.7068 1.35705 53.9423 0.0859592Z" fill="white"/>
<rect x="88.0234" y="88.7227" width="14" height="33" fill="white"/>
<rect x="110.023" y="56.7227" width="13" height="65" fill="white"/>
<rect x="131.023" y="75.7227" width="14" height="46" fill="white"/>
</svg>
