<svg width="153" height="143" viewBox="0 0 153 143" fill="none" xmlns="http://www.w3.org/2000/svg">
<path d="M119.007 14.9121C119.523 14.9423 120.104 15.019 120.484 15.3866C123.591 18.3893 126.507 22.1484 129.273 25.4647L141.465 40.0673C143.771 42.8373 151.459 51.6387 152.929 54.3111C153.341 57.1724 149.571 57.3948 147.639 57.4261C143.346 57.496 138.913 57.2167 134.637 57.5233L134.637 142.57C129.71 142.685 124.386 142.591 119.428 142.594L103.757 142.583C103.622 132.722 103.723 122.646 103.722 112.773L103.73 57.3979C98.3067 57.3469 92.8015 57.5056 87.3902 57.3267C86.7729 56.9213 86.1058 56.4164 85.7245 55.7722C85.4377 55.2874 85.3145 54.7073 85.482 54.1561C85.8862 52.8264 113.846 19.6371 116.261 17.0294C117.096 16.128 117.925 15.4969 119.007 14.9121Z" fill="black"/>
<path d="M47.1826 0.158762C62.6263 -1.47746 76.4709 9.71954 78.1002 25.1641C79.7295 40.6086 68.526 54.4479 53.0808 56.0703C37.6456 57.6914 23.8169 46.4969 22.1887 31.0623C20.5604 15.6278 31.7486 1.79394 47.1826 0.158762Z" fill="black"/>
<path d="M47.5438 66.0592C48.1193 66.0198 48.6959 66 49.2727 65.9998C61.3265 65.9127 71.9747 69.0659 81.7826 76.3257C84.6418 78.4421 87.461 81.2999 90.0011 83.8045C84.3433 83.726 78.6846 83.7071 73.0266 83.7474C68.9055 83.7384 64.4106 83.5042 60.3678 84.1369C57.7041 84.5536 53.2651 88.1761 52.7544 90.8281C51.6435 96.5987 52.2056 102.99 51.9702 108.947C47.8657 106.293 44.3314 106.693 39.5928 106.696C34.4158 106.724 20.2888 105.977 16.2729 107.571C14.0897 108.438 12.1444 110.191 10.3234 111.641C9.8928 111.745 9.45503 111.817 9.0139 111.855C6.16011 112.105 -0.355605 112.25 0.0151859 107.859C1.45846 90.7714 14.5961 75.9234 30.2038 69.7025C35.8146 67.4662 41.5308 66.4189 47.5438 66.0592Z" fill="black"/>
<path d="M61.3665 92.5008C65.1431 92.2487 87.7309 92.0016 90.1965 92.7179C90.5001 92.8061 90.6968 92.8353 90.844 93.1282C91.329 94.0926 91.3611 95.6687 91.3956 96.7465C91.7481 107.793 91.408 118.951 91.3924 130.011C91.3891 132.255 91.8088 140.834 91.2977 142.444L90.8226 142.574C80.8604 142.71 70.5362 142.617 60.5584 142.57C60.3489 133.384 60.5403 123.599 60.5109 114.41C60.4975 110.22 59.9825 95.5847 61.3665 92.5008Z" fill="black"/>
<path d="M18.9063 115.769C25.2349 115.321 32.2676 115.894 38.6661 115.658C40.8739 115.576 45.4013 115.489 47.2798 116.291C48.7071 117.59 47.8727 129.17 48.043 131.683C48.1457 133.196 48.2593 141.533 47.8165 142.467L47.1509 142.591L17.3257 142.574C17.1855 138.951 16.7359 118.735 17.6413 116.655C17.8334 116.214 18.4933 115.963 18.9063 115.769Z" fill="black"/>
</svg>
